<?xml version="1.0" encoding="utf-8"?>
<!-- Generator: Adobe Illustrator 16.0.0, SVG Export Plug-In . SVG Version: 6.00 Build 0)  -->
<!DOCTYPE svg PUBLIC "-//W3C//DTD SVG 1.1//EN" "http://www.w3.org/Graphics/SVG/1.1/DTD/svg11.dtd">
<svg version="1.1" class="arrival" xmlns="http://www.w3.org/2000/svg" xmlns:xlink="http://www.w3.org/1999/xlink" x="0px" y="0px"
	 width="485.211px" height="485.211px" viewBox="754 0 485.211 485.211" enable-background="new 754 0 485.211 485.211"
	 xml:space="preserve">
<polygon class="flag" points="966.281,60.491 966.281,60.79 844.976,60.79 784.325,121.438 844.832,181.947 
	1087.584,181.947 1087.584,60.79 1026.931,60.79 1026.931,60.491 "/>
<g class="stick">
	<path class="base" d="M1034.932,181.955V60.651V30.327c0-16.765-15.207-30.327-34.002-30.327
		c-17.613,0-32.073,11.915-33.823,27.207v458.005h67.825V333.584V212.282V181.955z"/>
	<path class="shadow" d="M1000.93,0c-0.77,0-1.529,0.031-2.286,0.076c15.81,1.047,28.288,14.172,28.288,30.251v30.324v121.304v30.327
		v121.302v151.627h8V333.584V212.282v-30.327V60.651V30.327C1034.932,13.562,1019.725,0,1000.93,0z"/>
</g>
</svg>
