<?xml version="1.0" encoding="utf-8"?>
<!DOCTYPE svg PUBLIC "-//W3C//DTD SVG 1.1//EN" "http://www.w3.org/Graphics/SVG/1.1/DTD/svg11.dtd">
<svg version="1.1" id="Calque_1" xmlns="http://www.w3.org/2000/svg" xmlns:xlink="http://www.w3.org/1999/xlink" x="0px" y="0px" 
	width="340px" height="340px" viewBox="0 0 340 340" enable-background="new 0 0 340 340" xml:space="preserve">
<path class="base" d="M301.192,0.05H38.808C17.373,0.05,0,17.426,0,38.859v262.282c0,21.436,17.373,38.812,38.808,38.812h262.384
		c21.436,0,38.808-17.376,38.808-38.812V38.859C340,17.426,322.627,0.05,301.192,0.05z"/>
<path fill="#FFFFFF" d="M223.139,76.303C208.566,63.269,186.945,56.66,158.88,56.66c-13.33,0-33.769,0.776-46.582,2.306
	c-9.582,1.143-16.797,9.27-16.797,18.92v186.4c0,10.524,8.533,19.055,19.057,19.055h4.326c10.525,0,19.055-8.534,19.055-19.055
	v-61.218c3.672,0.231,14.505,0.283,17.912,0.283c29.528,0,54.357-9.09,69.938-25.604c12.414-12.843,18.71-29.975,18.71-50.923
	C244.499,106.227,236.913,88.293,223.139,76.303z M156.457,161.184c-4.32,0-15.266-0.155-18.518-0.471V99.117
	c3.744-0.347,15.748-0.592,21.546-0.592c25.012,0,37.693,9.929,37.693,29.513C197.178,150.032,183.479,161.184,156.457,161.184z"/>
</svg>
