<?xml version="1.0" encoding="UTF-8" standalone="no"?>
<svg
   xmlns:dc="http://purl.org/dc/elements/1.1/"
   xmlns:cc="http://creativecommons.org/ns#"
   xmlns:rdf="http://www.w3.org/1999/02/22-rdf-syntax-ns#"
   xmlns:svg="http://www.w3.org/2000/svg"
   xmlns="http://www.w3.org/2000/svg"
   xmlns:sodipodi="http://sodipodi.sourceforge.net/DTD/sodipodi-0.dtd"
   xmlns:inkscape="http://www.inkscape.org/namespaces/inkscape"
   version="1.1"
   id="Layer_1"
   x="0px"
   y="0px"
   width="90px"
   height="90px"
   viewBox="0 0 90 90"
   enable-background="new 0 0 90 90"
   xml:space="preserve"
   inkscape:version="0.48.4 r9939"
   sodipodi:docname="distance.svg"><metadata
     id="metadata15"><rdf:RDF><cc:Work
         rdf:about=""><dc:format>image/svg+xml</dc:format><dc:type
           rdf:resource="http://purl.org/dc/dcmitype/StillImage" /></cc:Work></rdf:RDF></metadata><defs
     id="defs13" /><sodipodi:namedview
     pagecolor="#ffffff"
     bordercolor="#666666"
     borderopacity="1"
     objecttolerance="10"
     gridtolerance="10"
     guidetolerance="10"
     inkscape:pageopacity="0"
     inkscape:pageshadow="2"
     inkscape:window-width="1438"
     inkscape:window-height="879"
     id="namedview11"
     showgrid="false"
     inkscape:zoom="2.6222222"
     inkscape:cx="-28.983051"
     inkscape:cy="45"
     inkscape:window-x="0"
     inkscape:window-y="19"
     inkscape:window-maximized="0"
     inkscape:current-layer="Layer_1" /><g
     id="g3"
     transform="matrix(1.1192917,-0.57953837,0.57953837,1.1192917,-30.666253,19.566914)"><path
       d="m 55.977,56.164 c -0.221,0 -0.436,-0.006 -0.652,-0.018 -5.881,-0.32 -9.584,-4.938 -12.849,-9.009 -2.657,-3.314 -5.168,-6.444 -8.181,-6.609 -2.867,-0.15 -6.69,2.137 -11.373,6.82 l -4.498,-4.494 c 6.188,-6.185 11.341,-8.936 16.221,-8.673 5.849,0.319 9.538,4.921 12.793,8.979 2.666,3.33 5.189,6.474 8.234,6.639 2.947,0.173 6.811,-2.175 11.574,-6.944 l 4.498,4.494 c -5.996,5.997 -11.027,8.815 -15.767,8.815 z"
       id="path5"
       inkscape:connector-curvature="0"
       style="fill:#000000" /><polygon
       points="9.928,46.903 8.639,48.192 12.16,51.714 8.639,55.234 9.928,56.523 13.45,53.004 16.966,56.523 18.257,55.234 14.733,51.714 18.257,48.192 16.966,46.903 13.45,50.425 "
       id="polygon7"
       style="fill:#000000" /><polygon
       points="73.027,33.477 71.738,34.766 75.26,38.286 71.738,41.806 73.027,43.095 76.551,39.575 80.07,43.095 81.361,41.806 77.84,38.286 81.361,34.766 80.07,33.477 76.551,36.998 "
       id="polygon9"
       style="fill:#000000" /></g></svg>