<svg xmlns="http://www.w3.org/2000/svg" xmlns:xlink="http://www.w3.org/1999/xlink" version="1.1" x="0px" y="0px" width="100px" height="100px" viewBox="0 0 100 100" enable-background="new 0 0 100 100" xml:space="preserve">
<g id="Layer_1">
	<g id="Layer_1_1_">
	</g>
	<g id="BACKGROUND">
	</g>
</g>
<g id="WATER">
	<g>
		<rect x="48.422" y="75.996" fill="#000000" width="2.5" height="10.015"/>
	</g>
	<g>
		
			<rect x="33.214" y="71.904" transform="matrix(0.8651 0.5016 -0.5016 0.8651 43.2277 -6.9119)" fill="#000000" width="2.5" height="10.014"/>
	</g>
	<g>
		
			<rect x="18.436" y="34.267" transform="matrix(0.8655 0.5009 -0.5009 0.8655 20.9451 -6.966)" fill="#000000" width="10.015" height="2.5"/>
	</g>
	<g>
		
			<rect x="29.531" y="23.192" transform="matrix(0.4994 0.8663 -0.8663 0.4994 38.4639 -17.6873)" fill="#000000" width="10.014" height="2.5"/>
	</g>
	<g>
		
			<rect x="59.8" y="75.704" transform="matrix(0.4994 0.8664 -0.8664 0.4994 99.1173 -17.6225)" fill="#000000" width="10.015" height="2.5"/>
	</g>
	<g>
		<rect x="14.36" y="49.448" fill="#000000" width="10.015" height="2.5"/>
	</g>
	<g>
		
			<rect x="21.878" y="60.67" transform="matrix(0.497 0.8678 -0.8678 0.497 68.6286 12.9693)" fill="#000000" width="2.501" height="10.018"/>
	</g>
	<path fill="#000000" d="M49.672,7.636c-23.744,0-43.062,19.317-43.062,43.062c0,23.745,19.317,43.063,43.062,43.063   c23.746,0,43.064-19.317,43.064-43.063C92.736,26.954,73.418,7.636,49.672,7.636z M68.395,20.731l-5.003,8.676l-2.165-1.249   l5.003-8.676L68.395,20.731z M79.64,31.977l1.249,2.166l-8.675,5.003l-1.249-2.166L79.64,31.977z M74.97,49.448h10.015v2.5H74.97   V49.448z M49.672,87.761c-20.436,0-37.062-16.626-37.062-37.063c0-20.017,15.954-36.367,35.812-37.03v37.03   c0,0.438,0.229,0.844,0.604,1.07l31.691,19.139C74.096,81.044,62.657,87.761,49.672,87.761z"/>
</g>
</svg>