<?xml version="1.0" encoding="UTF-8" standalone="no"?>
<svg
   xmlns:dc="http://purl.org/dc/elements/1.1/"
   xmlns:cc="http://creativecommons.org/ns#"
   xmlns:rdf="http://www.w3.org/1999/02/22-rdf-syntax-ns#"
   xmlns:svg="http://www.w3.org/2000/svg"
   xmlns="http://www.w3.org/2000/svg"
   xmlns:sodipodi="http://sodipodi.sourceforge.net/DTD/sodipodi-0.dtd"
   xmlns:inkscape="http://www.inkscape.org/namespaces/inkscape"
   version="1.1"
   id="Your_Icon"
   x="0px"
   y="0px"
   width="100px"
   height="100px"
   viewBox="0 0 100 100"
   enable-background="new 0 0 100 100"
   xml:space="preserve"
   inkscape:version="0.48.3.1 r9886"
   sodipodi:docname="icon_27521.svg"><metadata
   id="metadata3065"><rdf:RDF><cc:Work
       rdf:about=""><dc:format>image/svg+xml</dc:format><dc:type
         rdf:resource="http://purl.org/dc/dcmitype/StillImage" /><dc:title></dc:title></cc:Work></rdf:RDF></metadata><defs
   id="defs3063" /><sodipodi:namedview
   pagecolor="#ffffff"
   bordercolor="#666666"
   borderopacity="1"
   objecttolerance="10"
   gridtolerance="10"
   guidetolerance="10"
   inkscape:pageopacity="0"
   inkscape:pageshadow="2"
   inkscape:window-width="687"
   inkscape:window-height="1059"
   id="namedview3061"
   showgrid="false"
   inkscape:zoom="2.36"
   inkscape:cx="22.195848"
   inkscape:cy="17.110446"
   inkscape:window-x="0"
   inkscape:window-y="19"
   inkscape:window-maximized="0"
   inkscape:current-layer="Your_Icon" />
<g
   id="g3057"
   style="fill:#808080">
	<path
   fill="#000000"
   d="M94.65,31.822c1.193,0.547,2.17,1.753,2.17,2.681c0,0.928-1.074,1.687-2.387,1.687h-10.02   c-1.312,0-2.387,1.074-2.387,2.387v47.609c0,1.312-1.074,2.387-2.387,2.387h-59.28c-1.312,0-2.387-1.074-2.387-2.387V38.577   c0-1.312-1.074-2.387-2.387-2.387H5.567c-1.312,0-2.387-0.759-2.387-1.687c0-0.927,0.978-2.132,2.172-2.676l42.604-19.41   c1.194-0.544,3.148-0.542,4.341,0.005L94.65,31.822z"
   id="path3059"
   style="fill:#808080" />
</g><path
   sodipodi:type="arc"
   style="color:#000000;fill:#ffffff;fill-opacity:1;fill-rule:nonzero;stroke:#ffffff;stroke-width:10.59700012;stroke-linecap:round;stroke-linejoin:round;stroke-miterlimit:4;stroke-opacity:1;stroke-dasharray:none;stroke-dashoffset:0;marker:none;visibility:visible;display:inline;overflow:visible;enable-background:accumulate"
   id="path3100"
   sodipodi:cx="48.516949"
   sodipodi:cy="51.483051"
   sodipodi:rx="17.161016"
   sodipodi:ry="17.161016"
   d="m 65.677965,51.483051 a 17.161016,17.161016 0 1 1 -34.322033,0 17.161016,17.161016 0 1 1 34.322033,0 z"
   transform="matrix(1.1226312,0,0,1.1226312,-5.314098,-3.1354619)" />
<path
   d="m 49.158218,34.78886 c -10.956246,0 -19.878608,8.914623 -19.878608,19.873448 0,10.956762 8.922362,19.870867 19.878608,19.870867 10.95057,0 19.867257,-8.914105 19.867257,-19.870867 C 69.025991,43.703483 60.108788,34.78886 49.158218,34.78886 z m -1.558176,31.28528 c -5.653804,-0.984953 -1.078856,-7.578306 -1.078856,-7.578306 4.711676,-7.759406 -1.392039,-5.915909 -1.392039,-5.915909 5.371063,-4.993386 6.877127,-0.619143 6.877127,-0.619143 1.123744,1.331673 -3.093649,10.397986 -3.093649,10.397986 -0.942645,2.166999 3.40838,1.742887 3.40838,1.742887 -1.874454,2.740738 -4.720963,1.972485 -4.720963,1.972485 z M 49.96104,48.611736 c -1.526703,0 -2.765504,-1.239833 -2.765504,-2.763956 0,-1.52825 1.238801,-2.76602 2.765504,-2.76602 1.52825,0 2.763956,1.23777 2.763956,2.76602 0,1.524123 -1.235706,2.763956 -2.763956,2.763956 z"
   id="path3048"
   inkscape:connector-curvature="0"
   style="fill:#808080;fill-opacity:1" /></svg>