<svg xmlns="http://www.w3.org/2000/svg" xmlns:xlink="http://www.w3.org/1999/xlink" version="1.1" id="Layer_1" x="0px" y="0px" width="100px" height="100px" viewBox="0 0 100 100" enable-background="new 0 0 100 100" xml:space="preserve">
<circle cx="23.5918" cy="46.94336" r="4.41602"/>
<path d="M25.66113,51.39648h-4.32422c-2.41797,0-4.37891,1.96094-4.37891,4.37891V68.3584  c0,1.14844,0.87793,2.08203,1.99609,2.19434v12.99512h9.09082V70.55273c1.11816-0.1123,1.99512-1.04688,1.99512-2.19434V55.77539  C30.04004,53.35742,28.0791,51.39648,25.66113,51.39648z"/>
<polygon points="37.95801,30.13086 1.70801,23.13086 1.70801,30.13086 1.70801,83.54785 7.70801,83.54785 7.70801,30.79297   37.95801,34.13086 "/>
<path d="M97.83301,59.20605c-0.00977-0.29199-0.02051-0.58496-0.03125-0.87695l-1.2373-32.43018  c-0.39648-2.77539-2.77441-4.83643-5.57715-4.83643H50.19824c-2.80273,0-5.18066,2.06104-5.57715,4.83643l-1.23828,32.42529  c-0.01074,0.2959-0.02148,0.59277-0.03125,0.88867l-0.26465,8.14746c-0.08105,2.52637,0.77734,4.98047,2.38477,6.90918v7.16797  c0,1.16602,1.28027,2.11035,2.86133,2.11035h4.56152c1.58008,0,2.86035-0.94434,2.86035-2.11035v-3.45996h29.6748v3.45996  c0,1.16602,1.28125,2.11035,2.86133,2.11035h4.56152c1.58008,0,2.86035-0.94434,2.86035-2.11035v-7.16992  c1.60742-1.93066,2.4668-4.38379,2.38477-6.91211L97.83301,59.20605z M64.41309,25.46338c0-0.91016,0.7373-1.64795,1.64746-1.64795  h9.06348c0.90918,0,1.64746,0.73779,1.64746,1.64795v0.13232c0,0.91016-0.73828,1.64795-1.64746,1.64795h-9.06348  c-0.91016,0-1.64746-0.73779-1.64746-1.64795V25.46338z M52.87695,70.39941c-2.65918,0-4.81445-2.15625-4.81445-4.81543  c0-2.66016,2.15527-4.81348,4.81445-4.81348c2.66016,0,4.81543,2.15332,4.81543,4.81348  C57.69238,68.24316,55.53711,70.39941,52.87695,70.39941z M88.30762,70.39941c-2.65918,0-4.81543-2.15625-4.81543-4.81543  c0-2.66016,2.15625-4.81348,4.81543-4.81348s4.81445,2.15332,4.81445,4.81348C93.12207,68.24316,90.9668,70.39941,88.30762,70.39941  z M90.35352,55.42969c-14.47363,2.10742-26.28906,2.28418-39.5918,0.07715c-1.70898-0.28418-2.94238-1.7793-2.89063-3.51074  c0.17676-5.92871,0.49805-18.61328,0.49805-18.61328c0.15137-1.08057,1.07617-1.89453,2.15039-1.89453  c6.54688-1.07227,34.15039-1.1626,40.14746,0c1.07422,0,1.99902,0.81396,2.15039,1.89355c0,0,0.31738,12.57031,0.49414,18.52734  C93.36328,53.66309,92.08984,55.17676,90.35352,55.42969z"/>
</svg>