<?xml version="1.0" encoding="UTF-8" standalone="no"?>
<svg
   xmlns:dc="http://purl.org/dc/elements/1.1/"
   xmlns:cc="http://creativecommons.org/ns#"
   xmlns:rdf="http://www.w3.org/1999/02/22-rdf-syntax-ns#"
   xmlns:svg="http://www.w3.org/2000/svg"
   xmlns="http://www.w3.org/2000/svg"
   xmlns:sodipodi="http://sodipodi.sourceforge.net/DTD/sodipodi-0.dtd"
   xmlns:inkscape="http://www.inkscape.org/namespaces/inkscape"
   version="1.1"
   id="Layer_1"
   x="0px"
   y="0px"
   width="100px"
   height="100px"
   viewBox="0 0 100 100"
   enable-background="new 0 0 100 100"
   xml:space="preserve"
   inkscape:version="0.48.4 r9939"
   sodipodi:docname="camera-bird.svg"><metadata
     id="metadata12"><rdf:RDF><cc:Work
         rdf:about=""><dc:format>image/svg+xml</dc:format><dc:type
           rdf:resource="http://purl.org/dc/dcmitype/StillImage" /></cc:Work></rdf:RDF></metadata><defs
     id="defs10" /><sodipodi:namedview
     pagecolor="#ffffff"
     bordercolor="#666666"
     borderopacity="1"
     objecttolerance="10"
     gridtolerance="10"
     guidetolerance="10"
     inkscape:pageopacity="0"
     inkscape:pageshadow="2"
     inkscape:window-width="1918"
     inkscape:window-height="1059"
     id="namedview8"
     showgrid="false"
     inkscape:zoom="2.36"
     inkscape:cx="51.271186"
     inkscape:cy="48.728814"
     inkscape:window-x="0"
     inkscape:window-y="19"
     inkscape:window-maximized="0"
     inkscape:current-layer="Layer_1" /><g
     id="IqpC08.tif"
     style="fill:#ffffff"><g
       id="g4"
       style="fill:#ffffff"><path
         fill-rule="evenodd"
         clip-rule="evenodd"
         d="M58.86,64.444c0.162,0.511,0.325,1.021,0.487,1.532    c-0.023,0.02-0.047,0.04-0.07,0.06c-0.29-0.216-0.626-0.392-0.86-0.657c-0.444-0.502-0.83-1.057-1.272-1.571    c0.06,0.178,0.126,0.354,0.176,0.534c0.163,0.593,0.33,1.184,0.475,1.779c0.077,0.317-0.188,0.56-0.5,0.519    c-0.246-0.032-0.404-0.148-0.538-0.352c-0.246-0.375-0.515-0.735-0.826-1.086c0.058,0.27,0.121,0.536,0.172,0.807    c0.056,0.298,0.113,0.597,0.144,0.897c0.045,0.432-0.433,0.793-0.848,0.656c-0.033-0.011-0.063-0.03-0.097-0.038    c-0.571-0.131-0.926-0.458-0.985-1.064c-0.01-0.101-0.047-0.2-0.075-0.299c-0.004-0.012-0.026-0.019-0.048-0.032    c-0.08,0.344-0.135,0.692-0.245,1.022c-0.079,0.231-0.231,0.438-0.361,0.672c-0.673-0.309-0.82-0.938-0.993-1.547    c-0.062-0.222-0.1-0.452-0.178-0.68c0.025,0.458-0.094,0.875-0.282,1.283c-0.153,0.331-0.695,0.522-1.009,0.348    c-0.513-0.285-0.651-0.771-0.726-1.297c-0.01-0.077-0.015-0.155-0.027-0.232c-0.004-0.021-0.026-0.041,0.021-0.037    c-0.176,0.579-0.326,1.169-0.54,1.733c-0.079,0.21-0.31,0.362-0.473,0.544c-0.489-0.504-0.618-1.105-0.826-1.687    c-0.061,0.283-0.112,0.569-0.185,0.85c-0.023,0.088-0.082,0.194-0.157,0.236c-0.302,0.167-0.613,0.315-0.926,0.459    c-0.045,0.021-0.129-0.012-0.18-0.043c-0.554-0.336-0.62-0.508-0.494-1.164c0.077-0.397,0.132-0.8,0.146-1.225    c-0.215,0.343-0.425,0.689-0.647,1.026c-0.139,0.211-0.245,0.442-0.556,0.491c-0.342,0.053-0.65-0.192-0.579-0.536    c0.146-0.71,0.307-1.417,0.461-2.125c0.01-0.046,0.021-0.091-0.01-0.156c-0.187,0.265-0.375,0.529-0.56,0.796    c-0.196,0.283-0.358,0.599-0.592,0.846c-0.233,0.245-0.537,0.424-0.81,0.632c-0.029-0.015-0.057-0.028-0.085-0.043    c0.131-0.51,0.262-1.02,0.393-1.53c-0.483,0.379-0.884,0.872-1.59,0.793c-0.229-0.597-0.273-1.205-0.089-1.866    c0.163-0.585,0.469-1.076,0.804-1.549c0.515-0.725,1.058-1.434,1.643-2.103c0.546-0.624,0.961-1.325,1.386-2.027    c0.457-0.756,0.832-1.548,1.153-2.368c0.005-0.013,0.001-0.03,0.001-0.072c-0.108,0.135-0.203,0.252-0.296,0.368    c-0.441,0.079-0.588-0.175-0.584-0.634c-0.197,0.277-0.344,0.496-0.505,0.702c-0.042,0.054-0.145,0.113-0.197,0.097    c-0.244-0.076-0.464-0.027-0.677,0.084c-0.213,0.112-0.405,0.093-0.6-0.045c-0.14-0.1-0.306-0.166-0.437-0.274    c-0.215-0.18-0.392-0.123-0.593,0.023c-0.173,0.127-0.368,0.223-0.54,0.323c-0.469-0.283-0.657-0.707-0.615-1.243    c-0.557,0.242-1.068,0.464-1.582,0.684c-0.143,0.062-0.289,0.116-0.437,0.162c-0.05,0.017-0.118,0.015-0.166-0.005    c-0.356-0.155-0.72-0.298-1.059-0.484c-0.132-0.073-0.234-0.234-0.305-0.377c-0.116-0.235-0.26-0.259-0.472-0.141    c-0.541,0.302-1.116,0.445-1.741,0.444c-0.506-0.001-0.913-0.188-1.209-0.568c-0.159-0.204-0.289-0.245-0.517-0.158    c-0.258,0.097-0.539,0.136-0.793,0.242c-0.431,0.179-0.771-0.037-1.105-0.232c-0.372-0.217-0.714-0.484-1.08-0.711    c-0.084-0.054-0.226-0.072-0.319-0.042c-0.469,0.152-0.921,0.343-1.435,0.319c-0.342-0.017-0.787-0.278-0.896-0.599    c-0.027-0.082-0.042-0.175-0.091-0.241c-0.046-0.063-0.131-0.14-0.198-0.139c-0.269,0.002-0.536,0.039-0.805,0.049    c-0.098,0.004-0.212-0.002-0.293-0.049c-0.329-0.188-0.649-0.395-0.971-0.596c-0.029-0.019-0.063-0.04-0.077-0.069    c-0.296-0.612-0.922-0.759-1.47-0.905c-0.58-0.155-0.87-0.538-1.123-0.982c-0.173-0.306-0.408-0.397-0.716-0.397    c-0.204-0.001-0.354-0.079-0.504-0.218c-0.409-0.378-0.806-0.761-1.116-1.23c-0.065-0.098-0.244-0.145-0.378-0.167    c-0.578-0.099-1.163-0.139-1.717-0.367c-0.297-0.123-0.396-0.355-0.522-0.618c0.742-0.205,1.466-0.405,2.191-0.606    c-0.001-0.012-0.003-0.023-0.004-0.036c-0.343,0.04-0.685,0.096-1.028,0.118c-0.848,0.057-1.698,0.143-2.546,0.13    c-0.734-0.011-1.446-0.227-2.134-0.492c-0.048-0.019-0.076-0.09-0.113-0.137c0.064-0.043,0.123-0.109,0.193-0.126    c0.807-0.175,1.618-0.286,2.449-0.304c0.477-0.01,0.951-0.18,1.426-0.277c-0.004-0.025-0.01-0.052-0.014-0.077    c-0.246,0.024-0.492,0.059-0.738,0.069c-1.241,0.055-2.481,0.125-3.722,0.138c-0.337,0.004-0.689-0.146-1.009-0.286    c-0.129-0.057-0.189-0.273-0.29-0.432c0.544-0.339,1.128-0.306,1.702-0.36c-0.188,0-0.376-0.002-0.563,0.001    c-0.191,0.004-0.383,0.015-0.574,0.02c-0.721,0.019-1.442,0.053-2.164,0.049c-0.624-0.002-1.246-0.054-1.869-0.073    c-0.444-0.013-0.657-0.365-1.013-0.646c0.215-0.11,0.376-0.221,0.554-0.28c0.475-0.157,0.963-0.188,1.464-0.142    c0.335,0.032,0.677,0.006,0.997,0.006c-0.888-0.056-1.719-0.422-2.587-0.635c-0.361-0.088-0.711-0.229-1.075-0.292    c-0.399-0.067-0.59-0.297-0.673-0.661c0.401-0.224,0.814-0.144,1.232-0.057c0.897,0.188,1.793,0.389,2.697,0.542    c0.502,0.084,1.02,0.084,1.531,0.119c0.302,0.02,0.605,0.036,0.913,0.021c-0.55-0.102-1.096-0.239-1.65-0.299    c-0.756-0.083-1.429-0.383-2.104-0.692c-0.454-0.208-0.904-0.424-1.358-0.629c-0.336-0.151-0.447-0.453-0.56-0.794    c2.313,0.55,4.602,1.095,6.892,1.639c0.006-0.02,0.012-0.039,0.019-0.059c-0.285-0.106-0.565-0.23-0.856-0.315    c-1.555-0.455-2.959-1.248-4.379-1.994c-0.376-0.197-0.634-0.621-0.945-0.94c0.013-0.018,0.025-0.035,0.038-0.052    c1.484,0.484,2.951,1.036,4.458,1.435c1.509,0.398,3.058,0.644,4.589,0.956c0.008-0.028,0.016-0.059,0.023-0.088    c-0.25-0.086-0.501-0.17-0.751-0.259c-1.218-0.438-2.451-0.84-3.646-1.333c-0.481-0.199-0.888-0.587-1.314-0.908    c-0.226-0.169-0.424-0.375-0.628-0.573c-0.05-0.05-0.071-0.13-0.136-0.254c3.662,0.958,7.263,1.9,10.863,2.843    c0.009-0.022,0.018-0.045,0.026-0.066c-1.648-0.706-3.295-1.411-4.943-2.117c0.009-0.031,0.018-0.063,0.026-0.095    c0.029-0.005,0.058-0.013,0.086-0.014c0.931-0.021,1.861-0.032,2.791-0.062c0.566-0.019,1.065,0.226,1.575,0.396    c1.767,0.594,3.52,1.226,5.279,1.843c0.031,0.011,0.068,0.009,0.139,0.018c-0.105-0.278-0.203-0.537-0.318-0.839    c0.181,0.011,0.323,0.031,0.465,0.027c1.394-0.033,2.735,0.286,4.075,0.604c1.335,0.317,2.686,0.41,4.052,0.317    c0.632-0.044,1.269-0.052,1.898-0.115c0.646-0.064,1.286-0.202,1.933-0.265c0.402-0.038,0.812,0,1.219,0.011    c0.469,0.013,0.938,0.04,1.407,0.05c1.701,0.036,3.398,0.118,5.071,0.459c0.326,0.066,0.438-0.197,0.539-0.384    c0.085-0.156,0.106-0.331,0.149-0.501c0.048-0.194,0.12-0.38,0.188-0.567c0.141-0.394,0.188-0.815,0.326-1.211    c0.124-0.358-0.114-0.635-0.409-0.913c0.163-0.286,0.619-0.487,0.914-0.588c0.842-0.285,1.673-0.37,2.412,0.239    c0.252,0.208,0.471,0.489,0.622,0.78c0.323,0.621,0.389,1.341,0.723,1.958c0.098,0.179,0.199,0.354,0.288,0.536    c0.091,0.187,0.202,0.368,0.388,0.473c0.052,0.03,0.126,0.044,0.184,0.034c0.445-0.08,0.885-0.187,1.332-0.249    c0.635-0.09,1.272-0.166,1.911-0.219c1.368-0.115,2.735-0.226,4.104-0.307c0.394-0.023,0.795,0.041,1.188,0.097    c1.104,0.152,2.211,0.161,3.323,0.166c1.562,0.007,3.066-0.27,4.561-0.696c1.168-0.333,2.359-0.569,3.613-0.521    c-0.08,0.258-0.159,0.514-0.254,0.82c0.535-0.214,1.02-0.413,1.508-0.602c1.591-0.611,3.18-1.229,4.777-1.82    c0.243-0.091,0.53-0.076,0.796-0.079c0.859-0.009,1.717-0.004,2.588-0.004c-1.498,0.979-3.251,1.449-4.757,2.412    c3.534-1.064,7.069-2.128,10.604-3.192c0.022,0.023,0.045,0.047,0.067,0.07c-0.15,0.183-0.281,0.386-0.455,0.542    c-0.367,0.33-0.739,0.66-1.146,0.94c-0.301,0.208-0.65,0.355-0.991,0.496c-1.187,0.492-2.379,0.971-3.628,1.478    c1.577-0.23,3.062-0.61,4.52-1.063c1.455-0.453,2.871-1.03,4.384-1.582c-0.211,0.254-0.394,0.442-0.539,0.656    c-0.242,0.354-0.605,0.534-0.961,0.729c-0.714,0.394-1.414,0.814-2.147,1.168c-0.614,0.296-1.266,0.513-1.9,0.767    c-0.124,0.048-0.245,0.102-0.367,0.153c0.009,0.025,0.017,0.05,0.025,0.075c2.2-0.61,4.399-1.222,6.618-1.838    c-0.047,0.511-0.361,0.773-0.738,0.961c-0.713,0.356-1.425,0.724-2.163,1.02c-0.453,0.182-0.955,0.243-1.435,0.354    c-0.326,0.076-0.654,0.146-0.976,0.27c0.486-0.05,0.979-0.063,1.457-0.155c1.223-0.237,2.443-0.495,3.656-0.775    c0.349-0.08,0.662-0.046,0.989,0.052c-0.054,0.339-0.181,0.562-0.553,0.672c-1.014,0.296-2.011,0.646-3.017,0.968    c-0.163,0.052-0.338,0.065-0.539,0.104c0.978,0.024,1.972-0.31,2.884,0.301c-0.29,0.387-0.584,0.687-1.084,0.708    c-0.605,0.025-1.209,0.108-1.816,0.119c-1.121,0.02-2.243,0.005-3.364,0.027c0.649,0.108,1.336-0.086,1.934,0.302    c-0.074,0.564-0.553,0.688-0.962,0.738c-1.304,0.156-2.617,0.146-3.928,0.034c-0.284-0.025-0.57-0.04-0.865-0.022    c0.158,0.036,0.318,0.064,0.474,0.11c0.513,0.15,1.037,0.169,1.568,0.188c0.639,0.021,1.275,0.107,1.912,0.181    c0.096,0.011,0.183,0.106,0.319,0.191c-0.975,0.403-1.896,0.704-2.883,0.683c-0.971-0.022-1.941-0.08-2.978-0.126    c0.779,0.186,1.499,0.357,2.211,0.526c-0.073,0.573-0.531,0.683-0.941,0.805c-0.412,0.124-0.845,0.186-1.271,0.263    c-0.164,0.03-0.287,0.088-0.367,0.246c-0.263,0.521-0.681,0.922-1.112,1.292c-0.151,0.13-0.422,0.115-0.631,0.188    c-0.11,0.038-0.225,0.103-0.302,0.188c-0.104,0.113-0.183,0.252-0.254,0.39c-0.202,0.392-0.492,0.65-0.928,0.787    c-0.385,0.121-0.743,0.327-1.109,0.503c-0.058,0.027-0.115,0.084-0.141,0.142c-0.254,0.557-0.836,0.726-1.271,1.066    c-0.077,0.062-0.236,0.021-0.356,0.021c-0.27,0.003-0.538,0.001-0.818,0.001c-0.026,0.079-0.056,0.159-0.081,0.24    c-0.159,0.521-0.48,0.74-1.019,0.764c-0.457,0.021-0.868-0.133-1.287-0.265c-0.142-0.044-0.244-0.049-0.373,0.057    c-0.32,0.264-0.647,0.523-0.997,0.745c-0.359,0.229-0.725,0.458-1.199,0.253C68,53.965,67.71,53.955,67.45,53.867    c-0.171-0.058-0.261-0.002-0.346,0.125c-0.321,0.489-0.775,0.67-1.358,0.692c-0.625,0.023-1.173-0.171-1.717-0.415    c-0.158-0.071-0.247-0.052-0.306,0.095c-0.263,0.646-0.931,0.722-1.439,1.02c-0.044,0.027-0.133-0.009-0.196-0.032    c-0.57-0.216-1.142-0.436-1.713-0.654c-0.071-0.027-0.144-0.055-0.232-0.088c-0.024,0.13-0.073,0.248-0.062,0.361    c0.034,0.347-0.156,0.564-0.382,0.782c-0.113,0.109-0.207,0.146-0.338,0.057c-0.021-0.015-0.047-0.024-0.066-0.041    c-0.46-0.407-0.893-0.316-1.31,0.07c-0.207,0.191-0.431,0.215-0.688,0.093c-0.194-0.092-0.401-0.144-0.624-0.052    c-0.05,0.021-0.16-0.035-0.205-0.088c-0.161-0.19-0.306-0.396-0.488-0.636c-0.041,0.203-0.074,0.363-0.104,0.513    c-0.359,0.214-0.603,0.061-0.834-0.222c0.088,0.175,0.182,0.348,0.262,0.525c0.491,1.09,1.174,2.066,1.843,3.047    c0.218,0.319,0.511,0.59,0.78,0.871c0.747,0.776,1.467,1.573,2.052,2.484c0.561,0.871,0.868,1.78,0.479,2.816    C59.777,65.291,59.358,64.808,58.86,64.444z"
         id="path6"
         style="fill:#ffffff" /></g></g></svg>