<svg xmlns="http://www.w3.org/2000/svg" viewBox="818.1 -742.8 54 47" enable-background="new 818.1 -742.8 54 47"><g fill="#fff"><path d="M856.284-739.005c0 2.1-1.7 3.8-3.8 3.8-2.1 0-3.8-1.7-3.8-3.8s1.7-3.8 3.8-3.8c2.1 0 3.8 1.7 3.8 3.8z"/><path d="M860.584-722.905l-6.2-2.2-2.8-7.7c-.7-1.3-1.8-2.3-3.1-2.5-3.1-.6-4.2 2.9-4.2 2.9l-2.3 9.6 6.5-3.8-.6-1.3c-.1-.3 0-.6.3-.7.3-.1.6 0 .7.3l.8 1.7 1.5 3.2.2.3c.1.2.4.5.7.6l6 2.3-3.9 6.6-5.1-4.7 1-4.7-1.2-2.7-7.3 4.3-2.8 11.9-6 9.4c-.2.3-.3.7-.3 1.1-.1.8.1 1.4.6 2 .5.6 1.1.9 1.9 1 1.1.1 2-.4 2.5-1.3l6.4-10.1.5-1.1 1.3-5.4 5.9 4.9-7 12c-.2.3-.1.8.3.9.1.1.2.1.3.1.2 0 .5-.1.6-.3l6-10.3v8.2c.3 1.3 1.1 2 2.5 2.1.8 0 1.4-.2 2-.7.6-.5.9-1.1.9-1.8v-.6l-.1-10.2c0-.8-.2-1.6-.7-2.1l-1-1 4.2-7.2c1.1.1 1.9-.6 2.1-1.7 0-.4-.5-1.1-1.1-1.3z"/><path d="M839.084-741.805c-3-.7-6 1.1-6.8 4.1l-2.4 10.1 8.2 2-.3 1.1-8.2-2-.8 3.3c-.6 2.4.4 3.6 2.8 4.2.4.1 4.2 1 5.8 1.3l-.6 2.4c-.1.4.1.8.5.8l.3.1c.3 0 .6-.2.7-.5l4.9-20.2c.8-3-1.1-6-4.1-6.7zm.4 11.6l-6-1.5 1.2-5 1 .2-1 4 4 1 1-4 1 .3-1.2 5z"/></g></svg>