<?xml version="1.0" encoding="utf-8"?>
<!-- Generator: Adobe Illustrator 16.0.0, SVG Export Plug-In . SVG Version: 6.00 Build 0)  -->
<!DOCTYPE svg PUBLIC "-//W3C//DTD SVG 1.1//EN" "http://www.w3.org/Graphics/SVG/1.1/DTD/svg11.dtd">
<svg version="1.1" id="Layer_1" xmlns="http://www.w3.org/2000/svg" xmlns:xlink="http://www.w3.org/1999/xlink" x="0px" y="0px"
	 width="30px" height="30px" viewBox="380 380 30 30" enable-background="new 380 380 30 30" xml:space="preserve">
<path fill="none" d="M388.939,383.676c0.382,0.7,0.573,1.337,0.318,1.401c-0.191,0.127-0.892-0.764-1.083-1.019
	c-1.337,0.828-2.547,1.911-3.439,3.121c-0.255,0.318-0.446,0.637-0.637,0.955l-0.446,0.765c0.127-0.255,0.254-0.51,0.446-0.765
	c0.254,0.127,1.083,0.892,1.019,1.083c-0.127,0.191-0.764,0.063-1.401-0.318c-0.446,0.828-0.828,1.783-1.083,2.738
	s-0.382,1.974-0.446,2.929c0.318,0,1.401,0.191,1.401,0.446c0,0.255-0.637,0.446-1.401,0.446l0.063,1.146
	c0.191,1.592,0.701,3.121,1.401,4.521c0.254-0.127,1.273-0.51,1.401-0.318s-0.318,0.637-0.955,1.082
	c0.509,0.828,1.146,1.593,1.847,2.293c0.701,0.701,1.465,1.273,2.229,1.783c0.382-0.7,0.892-1.082,1.083-1.019
	c0.191,0.128,0.063,0.765-0.318,1.401c1.719,0.891,3.694,1.4,5.604,1.527c0-0.764,0.191-1.4,0.446-1.4
	c0.255,0,0.382,1.082,0.446,1.4c0.956,0,1.911-0.19,2.802-0.381c1.02-0.256,1.975-0.637,2.866-1.083
	c-0.382-0.7-0.573-1.337-0.318-1.401c0.19-0.127,0.955,0.764,1.083,1.02c1.337-0.828,2.483-1.911,3.438-3.121
	c0.255-0.318,0.446-0.637,0.638-0.955c-0.701-0.383-1.084-0.892-1.02-1.083c0.127-0.19,1.146,0.191,1.4,0.318
	c0.446-0.827,0.828-1.782,1.083-2.738c0.255-0.827,0.382-1.72,0.446-2.61h-13.756v-13.629c-0.764,0.063-1.528,0.191-2.292,0.382
	C390.786,382.784,389.831,383.166,388.939,383.676L388.939,383.676z"/>
<path fill="#FFFFFF" stroke="#FFFFFF" stroke-width="0.0034" stroke-miterlimit="10" d="M383.653,388.961"/>
<path fill="#FFFFFF" stroke="#FFFFFF" stroke-width="0.0034" stroke-miterlimit="10" d="M385.054,389.28
	c0.127-0.191-0.764-0.892-1.019-1.083c-0.127,0.255-0.254,0.509-0.446,0.764C384.29,389.344,384.927,389.471,385.054,389.28
	L385.054,389.28z"/>
<path fill="#FFFFFF" stroke="#FFFFFF" stroke-width="0.0034" stroke-miterlimit="10" d="M407.407,398.323
	c-0.255,0.955-0.637,1.91-1.083,2.738c-0.254-0.128-1.337-0.573-1.4-0.318c-0.127,0.19,0.318,0.7,1.019,1.083l-0.637,0.955
	c-0.955,1.273-2.102,2.293-3.438,3.12c-0.128-0.255-0.893-1.083-1.083-1.019c-0.19,0.063-0.063,0.764,0.318,1.4
	c-0.892,0.51-1.847,0.828-2.866,1.083c-0.891,0.255-1.846,0.382-2.802,0.382c0-0.318-0.191-1.4-0.446-1.4s-0.446,0.637-0.446,1.4
	c-1.974-0.063-3.885-0.572-5.604-1.528c0.382-0.7,0.573-1.337,0.318-1.401c-0.191-0.127-0.701,0.318-1.083,1.02
	c-0.828-0.51-1.592-1.082-2.229-1.783c-0.701-0.701-1.337-1.465-1.847-2.293c0.637-0.382,1.083-0.828,0.956-1.082
	c-0.127-0.191-1.083,0.191-1.401,0.318c-0.764-1.401-1.273-2.93-1.401-4.521c-0.063-0.383-0.063-0.765-0.063-1.146
	c0.764,0,1.401-0.191,1.401-0.446c0-0.255-1.083-0.382-1.401-0.446c0-0.956,0.191-1.974,0.446-2.93
	c0.254-0.955,0.637-1.847,1.083-2.738l0.446-0.764l0.637-0.956c0.956-1.273,2.102-2.292,3.439-3.12
	c0.191,0.254,0.892,1.083,1.083,1.019c0.191-0.127,0.064-0.764-0.318-1.401c0.892-0.509,1.847-0.828,2.802-1.083
	c0.764-0.191,1.528-0.318,2.292-0.382v-1.083c-2.102,0.127-4.139,0.764-6.05,1.847c-6.75,3.885-9.043,12.482-5.158,19.169
	c1.273,2.229,3.057,3.948,5.095,5.095c4.203,2.42,9.552,2.611,14.01,0c4.268-2.483,6.75-6.814,7.006-11.399h-1.146
	C407.789,396.604,407.662,397.495,407.407,398.323L407.407,398.323z"/>
<path fill="#FFFFFF" stroke="#FFFFFF" stroke-width="0.0034" stroke-miterlimit="10" d="M407.854,395.712v-0.255
	c-0.256,0-1.401-0.191-1.401-0.446c0-0.254,0.637-0.446,1.401-0.446c0-0.382,0-0.828-0.064-1.21c-0.19-1.528-0.7-3.057-1.4-4.458
	c-0.255,0.127-1.338,0.509-1.401,0.318c-0.128-0.191,0.318-0.701,1.019-1.083c-0.572-0.828-1.146-1.656-1.91-2.356
	c-0.701-0.701-1.4-1.274-2.229-1.783c-0.383,0.701-0.893,1.083-1.083,1.019c-0.19-0.064-0.063-0.764,0.318-1.401
	c-1.655-0.892-3.63-1.401-5.604-1.528c0,0.764-0.191,1.401-0.446,1.401c-0.255,0-0.446-0.956-0.51-1.337h-0.509v13.564H407.854
	L407.854,395.712z"/>
<path fill="#FFFFFF" stroke="#FFFFFF" stroke-width="0.0034" stroke-miterlimit="10" d="M407.089,388.006
	c-1.273-2.229-3.057-3.949-5.095-5.095c-2.42-1.401-5.158-2.038-7.96-1.847v1.146h0.509c0,0.318,0.191,1.401,0.446,1.401
	s0.446-0.637,0.446-1.401c1.974,0.063,3.885,0.573,5.604,1.528c-0.383,0.701-0.573,1.337-0.318,1.401
	c0.191,0.127,0.7-0.318,1.082-1.019c0.828,0.509,1.592,1.083,2.229,1.783c0.7,0.7,1.337,1.528,1.91,2.356
	c-0.637,0.382-1.083,0.828-1.019,1.083c0.127,0.191,1.146-0.191,1.4-0.319c0.765,1.401,1.211,2.866,1.401,4.458
	c0.063,0.382,0.063,0.828,0.063,1.21c-0.764,0-1.4,0.191-1.4,0.446s1.146,0.445,1.4,0.445v0.256h1.146
	C409.127,393.101,408.49,390.426,407.089,388.006L407.089,388.006z"/>
</svg>
