<?xml version="1.0" encoding="utf-8"?>
<!-- Generator: Adobe Illustrator 16.0.0, SVG Export Plug-In . SVG Version: 6.00 Build 0)  -->
<!DOCTYPE svg PUBLIC "-//W3C//DTD SVG 1.1//EN" "http://www.w3.org/Graphics/SVG/1.1/DTD/svg11.dtd">
<svg version="1.1" id="Layer_1" xmlns="http://www.w3.org/2000/svg" xmlns:xlink="http://www.w3.org/1999/xlink" x="0px" y="0px"
	 width="30px" height="30px" viewBox="380 380 30 30" enable-background="new 380 380 30 30" xml:space="preserve">
<path stroke="#FFFFFF" stroke-width="3.009066e-04" stroke-miterlimit="10" d="M395.499,386.605c0-0.191-0.191-1.019-0.446-1.019
	h-0.191c-0.255,0-0.446,0.828-0.446,1.019v8.406h1.146L395.499,386.605z"/>
<path fill="none" d="M388.875,383.676c0.382,0.701,0.573,1.337,0.318,1.401c-0.191,0.127-0.892-0.764-1.083-1.019
	c-1.337,0.828-2.547,1.911-3.439,3.121c-0.255,0.318-0.446,0.637-0.637,0.955l-0.446,0.764c0.127-0.255,0.254-0.509,0.446-0.764
	c0.254,0.127,1.083,0.892,1.019,1.083c-0.127,0.191-0.764,0.064-1.401-0.318c-0.446,0.828-0.828,1.783-1.083,2.739
	c-0.255,0.955-0.382,1.974-0.446,2.929c0.318,0,1.401,0.191,1.401,0.446s-0.637,0.446-1.401,0.446l0.063,1.146
	c0.191,1.592,0.701,3.121,1.401,4.521c0.255-0.127,1.274-0.51,1.401-0.318s-0.318,0.637-0.956,1.083
	c0.51,0.828,1.146,1.593,1.847,2.292c0.7,0.701,1.464,1.274,2.229,1.783c0.382-0.699,0.892-1.082,1.083-1.018
	c0.191,0.127,0.063,0.764-0.318,1.4c1.719,0.892,3.693,1.4,5.604,1.528c0-0.765,0.191-1.401,0.446-1.401s0.382,1.083,0.446,1.401
	c0.955,0,1.91-0.19,2.803-0.382c1.019-0.255,1.974-0.637,2.865-1.083c-0.382-0.7-0.573-1.337-0.318-1.401
	c0.191-0.127,0.955,0.765,1.082,1.02c1.338-0.828,2.484-1.91,3.439-3.121c0.255-0.318,0.445-0.637,0.637-0.955
	c-0.7-0.382-1.082-0.892-1.019-1.082c0.127-0.191,1.146,0.19,1.401,0.318c0.445-0.828,0.828-1.783,1.082-2.738
	c0.255-0.828,0.383-1.721,0.445-2.611h-13.755v-13.628c-0.764,0.063-1.529,0.191-2.293,0.382
	C390.723,382.784,389.767,383.167,388.875,383.676L388.875,383.676L388.875,383.676z"/>
<path fill="#FFFFFF" stroke="#FFFFFF" stroke-width="3.009066e-04" stroke-miterlimit="10" d="M385.186,389.28
	c0.127-0.191-0.764-0.892-1.019-1.083c-0.127,0.255-0.255,0.51-0.446,0.764C384.421,389.344,385.058,389.471,385.186,389.28z"/>
<path fill="#FFFFFF" stroke="#FFFFFF" stroke-width="3.009066e-04" stroke-miterlimit="10" d="M407.408,398.323
	c-0.256,0.956-0.638,1.911-1.084,2.738c-0.254-0.127-1.337-0.573-1.4-0.318c-0.127,0.191,0.318,0.7,1.019,1.083l-0.637,0.955
	c-0.955,1.273-2.102,2.293-3.438,3.121c-0.128-0.256-0.893-1.083-1.083-1.02c-0.191,0.064-0.063,0.764,0.318,1.401
	c-0.892,0.509-1.847,0.827-2.866,1.083c-0.891,0.254-1.847,0.382-2.802,0.382c0-0.319-0.191-1.401-0.446-1.401
	s-0.446,0.637-0.446,1.401c-1.974-0.063-3.885-0.573-5.604-1.528c0.382-0.701,0.573-1.338,0.318-1.401
	c-0.191-0.128-0.701,0.318-1.083,1.019c-0.828-0.51-1.592-1.082-2.229-1.783c-0.701-0.7-1.337-1.465-1.847-2.293
	c0.637-0.381,1.083-0.827,0.956-1.082c-0.127-0.191-1.083,0.191-1.401,0.318c-0.764-1.4-1.273-2.93-1.401-4.521
	c-0.063-0.383-0.063-0.764-0.063-1.146c0.764,0,1.401-0.191,1.401-0.446c0-0.254-1.083-0.382-1.401-0.446
	c0-0.955,0.191-1.974,0.446-2.929c0.254-0.956,0.637-1.847,1.083-2.738l0.446-0.764l0.637-0.956
	c0.956-1.273,2.102-2.292,3.439-3.121c0.191,0.255,0.892,1.083,1.083,1.019c0.191-0.127,0.064-0.764-0.318-1.401
	c0.892-0.509,1.847-0.828,2.802-1.083c0.764-0.191,1.528-0.318,2.292-0.382v-1.083c-2.102,0.127-4.139,0.764-6.05,1.847
	c-6.75,3.885-9.043,12.482-5.158,19.169c1.273,2.229,3.057,3.948,5.095,5.094c4.203,2.42,9.552,2.611,14.01,0
	c4.268-2.482,6.75-6.813,7.006-11.398h-1.146C407.789,396.604,407.662,397.496,407.408,398.323z"/>
<path fill="#FFFFFF" stroke="#FFFFFF" stroke-width="3.009066e-04" stroke-miterlimit="10" d="M407.854,395.713v-0.255
	c-0.255,0-1.401-0.191-1.401-0.446s0.637-0.446,1.401-0.446c0-0.382,0-0.828-0.064-1.21c-0.19-1.528-0.7-3.057-1.4-4.458
	c-0.255,0.127-1.338,0.51-1.401,0.318c-0.128-0.191,0.318-0.7,1.019-1.083c-0.572-0.828-1.146-1.656-1.91-2.356
	c-0.7-0.701-1.4-1.274-2.229-1.783c-0.383,0.7-0.892,1.083-1.083,1.019c-0.19-0.063-0.063-0.764,0.318-1.401
	c-1.655-0.892-3.63-1.401-5.604-1.528c0,0.764-0.191,1.401-0.446,1.401s-0.446-0.955-0.509-1.337h-0.51v13.565H407.854
	L407.854,395.713z"/>
<path fill="#FFFFFF" stroke="#FFFFFF" stroke-width="3.009066e-04" stroke-miterlimit="10" d="M394.034,408.831h0.255
	c0-0.255,0.191-1.401,0.446-1.401s0.446,0.637,0.446,1.401c0.382,0,0.828,0,1.21-0.063c1.527-0.191,3.057-0.637,4.457-1.401
	c-0.127-0.255-0.127-1.528-0.318-1.401c-2.93,1.656,0.318-0.254,1.083,1.02c0.828-0.573,1.655-1.146,2.356-1.91
	c0.7-0.701,1.273-1.401,1.783-2.229c-0.701-0.382,0.572-0.063,0.7-0.255s-0.956-0.828-0.255-0.445
	c0.892-1.72,1.465-3.693,1.529-5.604c-0.765,0,0.764,0,0.764-0.255c0-0.254-1.083-0.573-0.764-0.573v-0.509h-13.565v13.628H394.034
	L394.034,408.831z"/>
<path fill="#FFFFFF" stroke="#FFFFFF" stroke-width="3.009066e-04" stroke-miterlimit="10" d="M407.089,388.006
	c-1.273-2.229-3.057-3.948-5.095-5.095c-2.42-1.401-5.158-2.038-7.96-1.847v1.146h0.51c0,0.318,0.191,1.401,0.446,1.401
	c0.254,0,0.445-0.637,0.445-1.401c1.975,0.063,3.885,0.573,5.604,1.528c-0.383,0.701-0.573,1.337-0.318,1.401
	c0.191,0.127,0.7-0.318,1.082-1.019c0.828,0.51,1.593,1.083,2.229,1.783c0.7,0.701,1.337,1.529,1.911,2.356
	c-0.637,0.382-1.084,0.828-1.02,1.083c0.127,0.191,1.146-0.191,1.4-0.318c0.765,1.401,1.211,2.866,1.402,4.458
	c0.062,0.382,0.062,0.828,0.062,1.21c-0.764,0-1.4,0.191-1.4,0.446s1.146,0.446,1.4,0.446v0.255h1.146
	C409.127,393.101,408.49,390.426,407.089,388.006z"/>
</svg>
