<svg xmlns="http://www.w3.org/2000/svg" width="164.47" height="164.484"><g><path d="M380 250.934a167.143 167.143 0 1 1-334.286 0 167.143 167.143 0 1 1 334.286 0z" transform="matrix(.462 0 0 .462 -16.13 -33.72)" color="#000" fill="#fff" stroke="#000" stroke-width="21.64" stroke-linecap="round" stroke-linejoin="round" overflow="visible" enable-background="accumulate"/><path d="M83.771 60.067c-12.914 3.635-17.439 4.419-28.688 11.25-.52 3.92-2.772 12.366 3.531 12.5 4.414-1.165 8.85-6.117 12.563-6.375-1.715 12.478-6.491 24.443-9.073 36.8-2.571 8.754-6.267 19.502-.834 27.856 6.147 6.024 14.949.433 20.75-3.094 8.609-4.973 16.654-10.884 25.281-15.844.517-3.904 3.631-11.367-2.031-12.844-5.068 1.066-8.973 5.131-13.738 7.162-2.42 1.022-6.385 4.46-8.512 3.026-.335-7.155 3.291-13.776 4.103-20.849 3.161-14.373 8.069-28.598 9.553-43.151-.759-2.959-9.948 3.173-12.906 3.563z" style="-inkscape-font-specification:URW Chancery L Bold Italic" font-size="200" font-style="italic" font-weight="bold" font-family="URW Chancery L" letter-spacing="0" word-spacing="0"/><path d="M93.692 37.521a15.847 15.594 0 1 1-31.694 0 15.847 15.594 0 1 1 31.694 0z" transform="matrix(.752 0 0 .751 27.799 6.171)" color="#000" stroke="#000" stroke-width="13.305" stroke-linecap="round" stroke-linejoin="round" overflow="visible" enable-background="accumulate"/></g></svg>