<?xml version="1.0" encoding="utf-8"?>
<!-- Generator: Adobe Illustrator 16.0.0, SVG Export Plug-In . SVG Version: 6.00 Build 0)  -->
<!DOCTYPE svg PUBLIC "-//W3C//DTD SVG 1.1//EN" "http://www.w3.org/Graphics/SVG/1.1/DTD/svg11.dtd">
<svg version="1.1"
	 id="rookie" xmlns:cc="http://creativecommons.org/ns#" xmlns:svg="http://www.w3.org/2000/svg" xmlns:dc="http://purl.org/dc/elements/1.1/" xmlns:rdf="http://www.w3.org/1999/02/22-rdf-syntax-ns#"
	 xmlns="http://www.w3.org/2000/svg" xmlns:xlink="http://www.w3.org/1999/xlink" x="0px" y="0px" width="31.162px"
	 height="50.245px" viewBox="-105.92 -419.22 31.162 50.245" enable-background="new -105.92 -419.22 31.162 50.245"
	 xml:space="preserve">
<g id="base">
	<path d="M-80.346-415.14c0,2.253-1.823,4.081-4.079,4.081c-2.254,0-4.078-1.827-4.078-4.081c0-2.253,1.824-4.08,4.078-4.08
		C-82.169-419.22-80.346-417.393-80.346-415.14z"/>
	<path d="M-94.01-412.076c0.024-2.179-1.724-3.966-3.904-3.991c-1.925-0.022-3.542,1.338-3.912,3.158l-4.001,15.644
		c-0.048,0.18-0.067,0.36-0.074,0.538c-0.008,0.099-0.017,0.197-0.018,0.295c-0.023,2.182,1.725,3.969,3.905,3.995
		c1.63,0.016,3.229-1.076,3.651-2.357c0.101-0.278,4.213-16.27,4.224-16.329C-94.062-411.43-94.015-411.746-94.01-412.076
		L-94.01-412.076z"/>
	<path d="M-75.791-397.966l-6.653-2.37l-2.985-8.194c-0.74-1.432-1.934-2.428-3.34-2.687c-3.299-0.616-4.451,3.15-4.451,3.15
		l-2.455,10.32l6.97-4.065l-0.633-1.368c-0.139-0.298-0.009-0.651,0.29-0.786c0.296-0.14,0.648-0.01,0.786,0.289l0.832,1.794
		c0.001,0.005,0.006,0.008,0.008,0.01c0.007,0.01,0.006,0.019,0.01,0.029l1.605,3.463l0.161,0.328
		c0.095,0.185,2.014,0.952,2.328,1.081l6.332,2.501l-4.463,7.681l-6.523-6.123l1.083-4.975l-1.315-2.842l-7.853,4.58l-3.039,12.756
		l-6.431,10.062c-0.238,0.335-0.357,0.734-0.357,1.211c-0.096,0.806,0.119,1.505,0.641,2.103c0.521,0.592,1.188,0.935,1.994,1.032
		c1.187,0.092,2.089-0.383,2.705-1.427l6.86-10.767c0.143-0.288,0.331-0.688,0.571-1.217l1.364-5.746l6.341,5.201
		c0,0,0.296,0.36,0.183,11.351c0.287,1.378,1.165,2.138,2.638,2.282c0.806,0.047,1.506-0.189,2.1-0.712
		c0.592-0.527,0.912-1.166,0.959-1.923c0-0.146,0-0.355,0-0.643l-0.054-10.887c0-0.86-0.199-1.718-0.745-2.263l-1.12-1.056
		l4.464-7.679c1.187,0.071,2.038-0.604,2.21-1.775C-74.659-397.021-75.175-397.735-75.791-397.966L-75.791-397.966z"/>
</g>
</svg>
