<svg xmlns="http://www.w3.org/2000/svg" width="32" height="32"><path d="M28.562 11.888s-2.115-2.923-5.474-2.737c-3.483-4.789-6.158-.622-6.158-.622-.249-.124-.56-.249-.933-.249-.311 0-.622.124-.871.249 0 0-2.737-4.167-6.22.622-3.297-.187-5.474 2.737-5.474 2.737-2.053 1.244-3.421 3.483-3.421 6.096 0 3.919 3.172 7.153 7.153 7.153 3.545 0 6.531-2.675 7.029-6.096 0 0 .498.684 1.679.684 1.182 0 1.928-.684 1.928-.684.498 3.421 3.483 6.033 7.029 6.033 3.981 0 7.153-3.172 7.153-7.153.062-2.55-1.368-4.789-3.421-6.033zm-21.646 11.196c-2.675 0-4.852-2.239-4.852-4.914s2.115-4.852 4.852-4.852 4.852 2.177 4.852 4.852c0 2.675-2.177 4.914-4.852 4.914zm9.081-5.411c-.933 0-1.742-.809-1.742-1.742 0-.995.809-1.742 1.742-1.742.995 0 1.804.746 1.804 1.742 0 .933-.809 1.742-1.804 1.742zm8.895 5.411c-2.675 0-4.852-2.239-4.852-4.914s2.177-4.852 4.852-4.852c2.675 0 4.852 2.177 4.852 4.852 0 2.675-2.177 4.914-4.852 4.914z" fill="#4d4a4a"/></svg>