<?xml version="1.0" encoding="utf-8"?>
<!DOCTYPE svg PUBLIC "-//W3C//DTD SVG 1.1//EN" "http://www.w3.org/Graphics/SVG/1.1/DTD/svg11.dtd">
<svg version="1.1" id="Calque_1" xmlns="http://www.w3.org/2000/svg" xmlns:xlink="http://www.w3.org/1999/xlink" x="0px" y="0px"
	 width="28.698px" height="22.47px" viewBox="0 0 28.698 22.47" enable-background="new 0 0 28.698 22.47" xml:space="preserve">
<path fill="#FFFFFF" d="M27.015,3.019H20C20.001,3,20.009,2.982,20.009,2.963V1.684c0-0.93-1.147-1.684-2.56-1.684h-6.201
	C9.836,0,8.689,0.754,8.689,1.684v1.279c0,0.019,0.008,0.037,0.009,0.056H1.684C0.754,3.019,0,3.772,0,4.702v16.084
	c0,0.93,0.754,1.684,1.684,1.684h25.33c0.931,0,1.685-0.754,1.685-1.684V4.702C28.699,3.772,27.944,3.019,27.015,3.019z
	 M20.141,13.337c-0.27,2.725-2.472,4.929-5.195,5.199c-3.683,0.365-6.753-2.705-6.388-6.387c0.271-2.725,2.474-4.928,5.198-5.197
	C17.438,6.588,20.506,9.656,20.141,13.337z M14.35,9.039c-2.046,0-3.705,1.659-3.705,3.705s1.659,3.704,3.705,3.704
	c2.045,0,3.704-1.658,3.704-3.704S16.395,9.039,14.35,9.039z"/>
</svg>
