<svg xmlns="http://www.w3.org/2000/svg" viewBox="0 0 100 86.4" enable-background="new 0 0 100 86.4"><path fill="#fff" d="M27.7 7.4c0 4-3.3 7.3-7.3 7.3-4.1 0-7.3-3.3-7.3-7.3s3.3-7.3 7.3-7.3c4-.1 7.3 3.2 7.3 7.3z"/><path fill="#fff" d="M21.1 57.6l1.6 27.1c0 .9.8 1.7 1.7 1.7 1 0 1.7-.8 1.7-1.7l1.5-27.1h4.8l-4.9-30.3 10 19.8c.4.9 1.4 1.3 2.3.9.9-.4 1.3-1.4.9-2.3 0 0-7.3-19.7-9.1-23.4-1.8-3.7-3.6-5.9-10.4-5.9h-1.4c-6.8 0-8.6 2.2-10.4 5.9-2 3.7-9.3 23.4-9.3 23.4-.4.9 0 1.9.9 2.3.9.4 1.9 0 2.3-.9l10-19.8-5 30.3h4.8l1.5 27.1c0 .9.8 1.7 1.7 1.7 1 0 1.7-.8 1.7-1.7l1.5-27.1h1.6z"/><path fill="#fff" d="M79.6 0c-4.1 0-7.4 3.3-7.4 7.3 0 4.1 3.3 7.3 7.4 7.3 4 0 7.3-3.3 7.3-7.3.1-4-3.2-7.3-7.3-7.3z"/><path fill="#fff" d="M87.2 43.2l.5-16 9 19.8c.4.9 1.4 1.3 2.3.9.9-.4 1.3-1.4.9-2.3 0 0-6.3-19.7-8.1-23.4-1.8-3.7-4.6-5.9-11.4-5.9h-1.4c-6.8 0-9.6 2.2-11.4 5.9-1.8 3.7-8.1 23.4-8.1 23.4-.4.9 0 1.9.9 2.3.9.4 1.9 0 2.2-.9l9-19.8.5 16-1.4 40.1c-.1 1.6 1.1 3 2.7 3.1h.2c1.5 0 2.8-1.2 2.9-2.7l3.2-33 3.3 33c.1 1.5 1.4 2.7 2.9 2.7h.2c1.6-.1 2.8-1.5 2.7-3.1l-1.6-40.1z"/><path fill="#fff" d="M50 44.6c-2.5 0-4.5 2-4.5 4.5s2 4.5 4.5 4.5 4.5-2 4.5-4.5-2-4.5-4.5-4.5z"/><path fill="#fff" d="M50 71.1l2 14.1c.3.7.9 1.2 1.7 1.2.8 0 1.5-.5 1.7-1.3 0 0 .1-.9 0-1l-.8-17.3.3-5.9c.2-2 .3-1.4 2.6-2.8 2.4-1.4 6.3-7.6 6.5-7.9.2-.3.6-.9.6-1.2.1-.6-.3-1.2-.9-1.3-.5-.1-.9.2-1.2.5-.3.3-4.9 6.4-8.3 7-.8-.1-1.6-.5-3.8-.5h-.9c-2.2 0-3 .4-3.8.5-3.4-.6-8-6.7-8.4-7-.3-.3-.7-.6-1.2-.5-.6.1-1 .7-.9 1.3.1.3.4.9.6 1.2.2.3 4.2 6.5 6.5 7.9 2.3 1.4 2.4.8 2.6 2.8l.3 5.9-.8 17.3v1c.2.7.9 1.3 1.7 1.3.8 0 1.4-.5 1.7-1.2.2 0 2.2-14.1 2.2-14.1"/></svg>