<?xml version="1.0" encoding="utf-8"?>
<!-- Generator: Adobe Illustrator 18.0.0, SVG Export Plug-In . SVG Version: 6.00 Build 0)  -->
<!DOCTYPE svg PUBLIC "-//W3C//DTD SVG 1.1//EN" "http://www.w3.org/Graphics/SVG/1.1/DTD/svg11.dtd">
<svg version="1.1" id="Layer_1" xmlns="http://www.w3.org/2000/svg" xmlns:xlink="http://www.w3.org/1999/xlink" x="0px" y="0px"
	 viewBox="0 0 512 512" enable-background="new 0 0 512 512" xml:space="preserve">
<g>
	<path fill="#FFFFFF" d="M446,140.1c-1.2-2.9-2.7-5.7-4.7-8.1L329.6,9.7c-2.5-2.8-5.6-4.8-8.9-6.5c-3.9-2-8.1-2.8-12.7-2.8H94.8
		c-16.5,0-30.3,14.1-30.3,31.9v446.9c0,17.9,13.7,33.2,30.3,33.2h324.1c16.5,0,29.6-15.3,29.6-33.2V153.7
		C448.5,148.9,447.8,144.3,446,140.1z M128.5,152.7c0-2,2.4-2.8,4.5-2.8h94.4c2.1,0,3.7,0.8,3.7,2.8v14.4c0,1.9-1.5,4.1-3.7,4.1H133
		c-2.1,0-4.5-2.3-4.5-4.1V152.7z M128.5,323.3c0-2,2.4-2.8,4.5-2.8H296c2.1,0,3.2,0.8,3.2,2.8v14.4c0,1.9-0.9,4.1-3.2,4.1H133
		c-2.1,0-4.5-2.3-4.5-4.1V323.3z M341.8,423.1c0,1.9-0.9,4.1-3.2,4.1H133c-2.1,0-4.5-2.3-4.5-4.1v-14.4c0-2,2.4-2.8,4.5-2.8h205.6
		c2.1,0,3.2,0.8,3.2,2.8L341.8,423.1L341.8,423.1z M384.5,252.4c0,1.9-0.9,4.1-3.2,4.1H133c-2.1,0-4.5-2.3-4.5-4.1V238
		c0-2,2.4-2.8,4.5-2.8h248.3c2.1,0,3.2,0.8,3.2,2.8L384.5,252.4L384.5,252.4z M322,151.2c-7.5,0-14.8-6.9-14.8-15.1v-88l94.9,103.1
		H322z"/>
</g>
</svg>
