<?xml version="1.0" encoding="utf-8"?>
<!-- Generator: Adobe Illustrator 16.0.0, SVG Export Plug-In . SVG Version: 6.00 Build 0)  -->
<!DOCTYPE svg PUBLIC "-//W3C//DTD SVG 1.1//EN" "http://www.w3.org/Graphics/SVG/1.1/DTD/svg11.dtd">
<svg version="1.1" class="duration" xmlns="http://www.w3.org/2000/svg" xmlns:xlink="http://www.w3.org/1999/xlink" x="0px" y="0px"
	 width="86px" height="86px" viewBox="0 0 86 86" enable-background="new 0 0 86 86" xml:space="preserve">
<g class="base">
	<g>
		<rect x="41.751" y="68.262" width="2.496" height="10"/>
	</g>
	<g>
		<rect x="26.566" y="64.178" transform="matrix(0.8649 0.502 -0.502 0.8649 38.4837 -4.6148)" width="2.496" height="9.997"/>
	</g>
	<g>
		<rect x="11.81" y="26.593" transform="matrix(0.8655 0.5009 -0.5009 0.8655 16.2055 -4.6755)" width="10" height="2.496"/>
	</g>
	<g>
		<rect x="22.89" y="15.531" transform="matrix(0.4994 0.8664 -0.8664 0.4994 28.4988 -15.763)" width="9.999" height="2.496"/>
	</g>
	<g>
		<rect x="53.109" y="67.973" transform="matrix(0.4994 0.8664 -0.8664 0.4994 89.0656 -15.6909)" width="10.001" height="2.496"/>
	</g>
	<g>
		<rect x="7.739" y="41.752" width="10" height="2.496"/>
	</g>
	<g>
		<rect x="15.241" y="52.958" transform="matrix(0.4969 0.8678 -0.8678 0.4969 58.5966 14.8515)" width="2.498" height="10.004"/>
	</g>
	<path d="M42.999,0.001C19.291,0.001,0,19.29,0,43c0,23.711,19.289,43,42.999,43C66.711,86,86,66.711,86,43
		C86,19.291,66.711,0.001,42.999,0.001z M61.693,13.077L56.7,21.741l-2.163-1.248l4.996-8.664L61.693,13.077z M72.924,24.306
		l1.246,2.163l-8.662,4.996l-1.246-2.163L72.924,24.306z M68.262,41.752h9.998v2.496h-9.998V41.752z M42.999,80.01
		C22.593,80.01,5.992,63.407,5.992,43c0-19.987,15.931-36.313,35.759-36.976V43c0,0.438,0.229,0.844,0.603,1.068L73.999,63.18
		C67.389,73.303,55.966,80.01,42.999,80.01z"/>
</g>
</svg>
