<?xml version="1.0" encoding="utf-8"?>
<!-- Generator: Adobe Illustrator 16.0.0, SVG Export Plug-In . SVG Version: 6.00 Build 0)  -->
<!DOCTYPE svg PUBLIC "-//W3C//DTD SVG 1.1//EN" "http://www.w3.org/Graphics/SVG/1.1/DTD/svg11.dtd">
<svg version="1.1" id="Layer_1" xmlns="http://www.w3.org/2000/svg" xmlns:xlink="http://www.w3.org/1999/xlink" x="0px" y="0px"
	 width="30px" height="30px" viewBox="380 380 30 30" enable-background="new 380 380 30 30" xml:space="preserve">
<path stroke="#FFFFFF" stroke-width="0.0034" stroke-miterlimit="10" d="M395.562,386.594c0-0.191-0.191-1.019-0.446-1.019h-0.191
	c-0.255,0-0.446,0.828-0.446,1.019V395h1.146L395.562,386.594L395.562,386.594z"/>
<path fill="none" d="M388.939,383.665c0.382,0.7,0.573,1.337,0.318,1.401c-0.191,0.127-0.892-0.764-1.083-1.019
	c-1.337,0.828-2.547,1.911-3.439,3.121c-0.255,0.318-0.446,0.637-0.637,0.955l-0.446,0.764c0.127-0.254,0.255-0.509,0.446-0.764
	c0.255,0.127,1.083,0.892,1.019,1.083c-0.127,0.191-0.764,0.063-1.401-0.318c-0.446,0.828-0.828,1.783-1.083,2.738
	c-0.255,0.955-0.382,1.974-0.446,2.929c0.318,0,1.401,0.191,1.401,0.446s-0.637,0.446-1.401,0.446l0.064,1.146
	c0.191,1.592,0.7,3.121,1.401,4.521c0.255-0.127,1.273-0.51,1.401-0.318s-0.318,0.637-0.955,1.083
	c0.509,0.828,1.146,1.593,1.847,2.293s1.465,1.273,2.229,1.782c0.382-0.699,0.892-1.082,1.083-1.018
	c0.191,0.062,0.064,0.764-0.318,1.4c1.72,0.892,3.694,1.401,5.604,1.528c0-0.765,0.191-1.401,0.446-1.401
	c0.254,0,0.382,1.083,0.446,1.401c0.956,0,1.911-0.19,2.801-0.382c1.02-0.255,1.975-0.637,2.867-1.083
	c-0.383-0.7-0.574-1.337-0.319-1.401c0.19-0.127,0.956,0.765,1.083,1.02c1.338-0.828,2.483-1.91,3.439-3.121
	c0.254-0.318,0.445-0.637,0.637-0.955c-0.701-0.382-1.084-0.891-1.02-1.082c0.127-0.191,1.146,0.19,1.4,0.318
	c0.446-0.828,0.828-1.783,1.084-2.738c0.254-0.828,0.382-1.721,0.445-2.611h-13.756V382.2c-0.764,0.063-1.529,0.191-2.293,0.382
	C390.786,382.773,389.831,383.155,388.939,383.665L388.939,383.665z"/>
<path fill="#FFFFFF" stroke="#FFFFFF" stroke-width="0.0034" stroke-miterlimit="10" d="M383.653,388.95"/>
<path fill="#FFFFFF" stroke="#FFFFFF" stroke-width="0.0034" stroke-miterlimit="10" d="M385.054,389.269
	c0.127-0.191-0.764-0.892-1.019-1.083c-0.127,0.254-0.254,0.509-0.445,0.764C384.29,389.332,384.927,389.459,385.054,389.269z"/>
<path fill="#FFFFFF" stroke="#FFFFFF" stroke-width="0.0034" stroke-miterlimit="10" d="M407.407,398.312
	c-0.255,0.956-0.637,1.911-1.083,2.738c-0.254-0.127-1.337-0.573-1.4-0.318c-0.127,0.191,0.318,0.7,1.019,1.083l-0.637,0.955
	c-0.955,1.273-2.102,2.293-3.438,3.121c-0.128-0.256-0.893-1.083-1.083-1.02c-0.19,0.127-0.063,0.764,0.318,1.401
	c-0.892,0.509-1.847,0.827-2.866,1.083c-0.891,0.254-1.847,0.382-2.802,0.382c0-0.318-0.191-1.401-0.446-1.401
	s-0.446,0.637-0.446,1.401c-1.974-0.063-3.885-0.573-5.604-1.528c0.382-0.701,0.573-1.338,0.318-1.401
	c-0.191-0.128-0.701,0.318-1.083,1.019c-0.828-0.51-1.592-1.082-2.229-1.783c-0.701-0.7-1.337-1.465-1.847-2.292
	c0.637-0.382,1.083-0.828,0.956-1.083c-0.127-0.191-1.083,0.191-1.401,0.318c-0.764-1.4-1.273-2.93-1.401-4.521
	c-0.063-0.382-0.063-0.764-0.063-1.146c0.764,0,1.401-0.191,1.401-0.446c0-0.255-1.083-0.382-1.401-0.446
	c0-0.956,0.191-1.975,0.446-2.93c0.254-0.955,0.637-1.847,1.083-2.738l0.446-0.764l0.637-0.955c0.955-1.274,2.102-2.293,3.439-3.121
	c0.191,0.254,0.892,1.083,1.083,1.019c0.191-0.127,0.064-0.765-0.318-1.401c0.892-0.509,1.847-0.828,2.802-1.083
	c0.764-0.191,1.528-0.318,2.292-0.382v-1.083c-2.102,0.127-4.139,0.764-6.05,1.847c-6.75,3.885-9.043,12.482-5.158,19.169
	c1.273,2.229,3.057,3.948,5.094,5.094c4.204,2.42,9.553,2.611,14.011,0c4.267-2.482,6.75-6.813,7.006-11.398h-1.146
	C407.789,396.592,407.662,397.484,407.407,398.312L407.407,398.312z"/>
<path fill="#FFFFFF" stroke="#FFFFFF" stroke-width="0.0034" stroke-miterlimit="10" d="M408.107,395.764v-0.254
	c-0.254,0-1.4-0.191-1.4-0.446c0-0.254,0.637-0.445,1.4-0.445c0-0.382,0-0.828-0.062-1.21c-0.256-1.592-0.701-3.057-1.402-4.458
	c-0.254,0.127-1.337,0.509-1.4,0.318c-0.064-0.191,0.318-0.701,1.019-1.083c-0.573-0.828-1.146-1.656-1.91-2.356
	c-0.7-0.701-1.401-1.273-2.229-1.783c-0.382,0.701-0.891,1.083-1.082,1.019c-0.191-0.127-0.064-0.764,0.318-1.401
	c-1.72-0.892-3.693-1.465-5.604-1.529c0,0.765-0.19,1.401-0.446,1.401c-0.254,0-0.382-1.083-0.446-1.401h-0.509v13.565
	L408.107,395.764L408.107,395.764z"/>
<path fill="#FFFFFF" stroke="#FFFFFF" stroke-width="0.0034" stroke-miterlimit="10" d="M394.097,408.819h0.255
	c0-0.255,0.191-1.401,0.446-1.401c0.255,0,0.446,0.637,0.446,1.401c0.382,0,0.829,0,1.209-0.063c1.529-0.191,3.058-0.637,4.459-1.4
	c-0.128-0.256-0.128-1.529-0.318-1.402c-2.93,1.656,0.318-0.254,1.082,1.02c0.828-0.573,1.656-1.146,2.356-1.91
	c0.7-0.701,1.273-1.401,1.783-2.229c-0.7-0.382,0.573-0.063,0.7-0.255s-0.955-0.828-0.254-0.445c0.891-1.72,1.464-3.693,1.527-5.604
	c-0.764,0,0.765,0,0.765-0.255c0-0.254-1.083-0.572-0.765-0.572v-0.51h-13.564v13.628H394.097L394.097,408.819z"/>
<path fill="#FFFFFF" stroke="#FFFFFF" stroke-width="0.0034" stroke-miterlimit="10" d="M396.008,409.011h-0.254
	c0-0.255-0.191-1.401-0.446-1.401s-0.446,0.637-0.446,1.401c-0.446,0-0.828,0-1.274-0.063c-1.656-0.191-3.248-0.637-4.776-1.401
	c0.127-0.255,0.127-1.528,0.318-1.401c3.121,1.656-0.318-0.254-1.146,1.02c-0.892-0.574-1.783-1.146-2.547-1.91
	c-0.701-0.701-1.401-1.402-1.911-2.23c0.701-0.381,0-0.254-0.382-0.254c-0.509,0,0.637-0.828-0.063-0.51
	c-0.955-1.719-1.528-3.693-1.592-5.604c0.828,0,0.255-0.318-0.063-0.256c-0.255,0,0.382-0.572,0.063-0.572v-0.51h14.457
	L396.008,409.011z"/>
<path fill="#FFFFFF" stroke="#FFFFFF" stroke-width="0.0034" stroke-miterlimit="10" d="M407.089,387.995
	c-1.273-2.229-3.057-3.949-5.095-5.095c-2.42-1.401-5.158-2.038-7.96-1.847v1.146h0.509c0,0.318,0.191,1.401,0.446,1.401
	s0.446-0.637,0.446-1.401c1.975,0.063,3.885,0.573,5.604,1.528c-0.383,0.701-0.573,1.337-0.318,1.401
	c0.254,0.063,0.7-0.318,1.082-1.019c0.828,0.509,1.592,1.083,2.229,1.783c0.7,0.7,1.337,1.528,1.911,2.356
	c-0.638,0.382-1.084,0.828-1.02,1.083c0.127,0.191,1.146-0.191,1.4-0.319c0.765,1.401,1.211,2.866,1.402,4.458
	c0.062,0.382,0.062,0.828,0.062,1.21c-0.764,0-1.4,0.191-1.4,0.446s1.146,0.446,1.4,0.446v0.255h1.146
	C409.127,393.089,408.49,390.415,407.089,387.995L407.089,387.995z"/>
</svg>
