<?xml version="1.0" encoding="utf-8"?>
<!DOCTYPE svg PUBLIC "-//W3C//DTD SVG 1.1//EN" "http://www.w3.org/Graphics/SVG/1.1/DTD/svg11.dtd">
<svg version="1.1" id="Calque_1" xmlns="http://www.w3.org/2000/svg" xmlns:xlink="http://www.w3.org/1999/xlink" x="0px" y="0px"
	 width="24px" height="24px" viewBox="0 0 24 24" enable-background="new 0 0 24 24" xml:space="preserve">
<path fill="#1D1D1B" d="M19.394,4.406c-0.846-0.466-1.816-0.733-2.851-0.733c-1.826,0-3.461,1.832-4.541,3.137
	c-1.084-1.305-2.718-3.137-4.547-3.137c-1.032,0-2,0.268-2.848,0.733C2.788,5.414,1.556,7.35,1.556,9.575
	c0,0.638,0.104,1.248,0.292,1.82c1.012,4.552,10.154,10.292,10.154,10.292s9.136-5.74,10.15-10.292
	c0.188-0.572,0.292-1.184,0.292-1.82C22.444,7.352,21.212,5.415,19.394,4.406z"/>
</svg>
