<?xml version="1.0" encoding="utf-8"?>
<!-- Generator: Adobe Illustrator 16.0.0, SVG Export Plug-In . SVG Version: 6.00 Build 0)  -->
<!DOCTYPE svg PUBLIC "-//W3C//DTD SVG 1.1//EN" "http://www.w3.org/Graphics/SVG/1.1/DTD/svg11.dtd">
<svg version="1.1" id="Calque_1" xmlns="http://www.w3.org/2000/svg" xmlns:xlink="http://www.w3.org/1999/xlink" x="0px" y="0px"
	 width="40px" height="40px" viewBox="0 0 40 40" enable-background="new 0 0 40 40" xml:space="preserve">
<path d="M36.542,18.5h-2.53C33.313,11.925,28.075,6.688,21.5,5.989V3.458h-3v2.531
	C11.926,6.688,6.688,11.924,5.989,18.5H3.458v3h2.531c0.699,6.575,5.936,11.812,12.51,12.512v2.53h3v-2.53
	c6.575-0.699,11.813-5.937,12.512-12.512h2.53V18.5z M21.5,30.98v-3.313h-3v3.313c-4.916-0.67-8.81-4.564-9.479-9.48h3.313v-3H9.021
	c0.669-4.916,4.563-8.81,9.48-9.479v3.313h3V9.021c4.917,0.669,8.812,4.563,9.48,9.48h-3.313v3h3.313
	C30.311,26.417,26.416,30.312,21.5,30.98z"/>
</svg>
