<svg xmlns="http://www.w3.org/2000/svg" width="41.574" height="41.574" viewBox="0 0 56.298811 56.298811" enable-background="new 0 0 60 100"><path d="M28.515 40.13l7.643-7.643c.649-.649.649-1.702 0-2.352-.649-.649-1.702-.649-2.352 0l-7.643 7.643-7.643-7.643 7.643-7.643c.649-.649.649-1.702 0-2.352-.649-.649-1.702-.649-2.352 0l-7.643 7.643-2.646-2.646-4.704 4.704c-4.267 4.267-4.795 10.855-1.587 15.697l-7.232 7.232 3.528 3.528 7.232-7.232c4.842 3.208 11.431 2.68 15.697-1.587l4.704-4.704-2.646-2.646z" fill="#fff"/><path d="M42.776 31.161l4.704-4.704c4.267-4.267 4.795-10.855 1.587-15.697l7.232-7.232-3.528-3.528-7.232 7.232c-4.842-3.208-11.431-2.68-15.697 1.587l-4.704 4.704 17.638 17.638z" fill="#fff"/></svg>