<?xml version="1.0" encoding="UTF-8" standalone="no"?>
<!-- Generator: Adobe Illustrator 17.0.0, SVG Export Plug-In . SVG Version: 6.00 Build 0)  -->

<svg
   xmlns:dc="http://purl.org/dc/elements/1.1/"
   xmlns:cc="http://creativecommons.org/ns#"
   xmlns:rdf="http://www.w3.org/1999/02/22-rdf-syntax-ns#"
   xmlns:svg="http://www.w3.org/2000/svg"
   xmlns="http://www.w3.org/2000/svg"
   xmlns:sodipodi="http://sodipodi.sourceforge.net/DTD/sodipodi-0.dtd"
   xmlns:inkscape="http://www.inkscape.org/namespaces/inkscape"
   version="1.1"
   id="Calque_1"
   x="0px"
   y="0px"
   width="54"
   height="47"
   viewBox="0 0 54 47"
   enable-background="new 0 0 612 792"
   xml:space="preserve"
   inkscape:version="0.48.4 r9939"
   sodipodi:docname="length.svg"><metadata
     id="metadata13"><rdf:RDF><cc:Work
         rdf:about=""><dc:format>image/svg+xml</dc:format><dc:type
           rdf:resource="http://purl.org/dc/dcmitype/StillImage" /><dc:title></dc:title></cc:Work></rdf:RDF></metadata><defs
     id="defs11" /><sodipodi:namedview
     pagecolor="#ffffff"
     bordercolor="#666666"
     borderopacity="1"
     objecttolerance="10"
     gridtolerance="10"
     guidetolerance="10"
     inkscape:pageopacity="0"
     inkscape:pageshadow="2"
     inkscape:window-width="1105"
     inkscape:window-height="650"
     id="namedview9"
     showgrid="false"
     inkscape:zoom="3.6557034"
     inkscape:cx="28.525424"
     inkscape:cy="25.169492"
     inkscape:window-x="75"
     inkscape:window-y="34"
     inkscape:window-maximized="0"
     inkscape:current-layer="Calque_1" /><g
     id="g3"
     transform="matrix(0.04579997,0,0,0.04579997,1.2816347,-3.0022965)"><g
       id="g5"><path
         d="m 204.457,447.018 c -12.816,0 -24.855,0.072 -36.892,-0.037 -4.478,-0.041 -9.095,0.101 -13.395,-0.916 -7.069,-1.672 -10.469,-7.733 -9.556,-15.404 1.045,-8.775 4.85,-12.909 12.89,-13.022 16.6,-0.235 33.205,-0.133 49.808,-0.209 7.805,-0.036 9.695,-1.333 12.512,-8.569 5.295,-13.598 10.437,-27.257 15.891,-40.791 1.402,-3.48 1.139,-5.767 -1.617,-8.541 -22.284,-22.43 -32.459,-49.811 -29.8,-81.047 3.67,-43.112 32.787,-76.454 70.08,-88.362 10.139,-3.238 8.768,-1.389 8.774,-12.04 0.006,-10.107 -0.038,-20.215 0.005,-30.322 0.046,-10.895 5.361,-16.098 16.422,-16.137 4.873,-0.018 9.746,0.03 14.62,0.053 9.881,0.045 14.77,4.642 14.86,14.393 0.105,11.368 0.098,22.741 -0.161,34.106 -0.114,4.988 1.251,7.517 6.615,9.059 39.864,11.464 69.014,47.32 72.542,88.589 2.709,31.683 -7.185,58.897 -29.367,81.569 -2.895,2.959 -3.201,5.411 -1.747,9.023 5.513,13.7 10.94,27.439 16.088,41.279 2.075,5.579 5.677,7.828 11.447,7.785 15.881,-0.119 31.763,-0.072 47.645,-0.022 12.852,0.04 19.067,8.75 15.084,21.022 -1.712,5.274 -6.673,8.431 -13.717,8.477 -12.995,0.086 -25.99,0.062 -38.985,0.084 -1.772,0.003 -3.545,0 -6.498,0 2.34,6.426 4.286,12.092 6.454,17.671 17.883,46.003 35.813,91.988 53.718,137.983 6.273,16.115 12.517,32.241 18.768,48.365 0.39,1.005 1.167,2.106 1.006,3.03 -0.373,2.135 -1.212,4.188 -1.861,6.274 -2.179,-0.793 -4.752,-1.114 -6.427,-2.511 -1.696,-1.416 -2.594,-3.849 -3.689,-5.917 -28.746,-54.337 -57.463,-108.69 -86.21,-163.027 -6.154,-11.632 -12.501,-23.163 -18.571,-34.838 -2.633,-5.064 -6.463,-6.687 -12.124,-7.228 -11.954,-1.142 -21.156,1.547 -27.974,12.436 -4.545,7.26 -11.985,12.156 -20.739,13.633 -9.154,1.544 -17.135,-1.852 -23.747,-8.008 -3.931,-3.66 -7.363,-7.908 -10.684,-12.154 -2.876,-3.678 -6.25,-5.73 -10.993,-5.727 -21.405,0.01 -18.708,-1.94 -28.585,16.708 -32.071,60.554 -64.147,121.106 -96.232,181.652 -1.773,3.346 -3.635,6.644 -5.493,9.944 -1.733,3.079 -3.829,6.579 -7.852,4.912 -4.399,-1.824 -2.498,-5.793 -1.316,-8.903 4.926,-12.969 9.994,-25.884 15.03,-38.811 18.248,-46.837 36.505,-93.672 54.759,-140.507 2.486,-6.379 5.003,-12.746 7.447,-19.142 0.621,-1.617 1.012,-3.32 1.767,-5.855 z M 306.509,233.62 c -29.691,-0.726 -54.072,24.384 -54.238,53.733 -0.167,29.314 25.416,54.413 54.356,53.946 29.434,-0.474 53.055,-24.481 53.521,-53.565 0.475,-29.705 -25.125,-54.998 -53.639,-54.114 z M 261.175,417.3 c 3.578,0 6.072,0.641 7.997,-0.133 4.066,-1.633 8.266,-3.47 11.635,-6.187 7.092,-5.719 14.093,-11.165 23.691,-11.78 11.455,-0.735 19.958,5.104 27.7,12.41 5.224,4.93 11.018,6.652 18.749,5.228 -1.052,-2.328 -1.696,-3.951 -2.497,-5.492 -3.653,-7.026 -7.608,-13.911 -10.928,-21.09 -1.778,-3.844 -4.223,-4.422 -7.775,-3.54 -12.899,3.205 -25.924,3.624 -39.058,1.775 -4.385,-0.617 -9.822,-2.931 -12.909,-1.178 -3.479,1.976 -4.919,7.627 -7.12,11.747 -3.012,5.64 -5.905,11.341 -9.485,18.24 z"
         id="path7"
         inkscape:connector-curvature="0"
         style="fill:#ffffff" /></g></g></svg>