<?xml version="1.0" encoding="utf-8"?>
<!-- Generator: Adobe Illustrator 16.0.0, SVG Export Plug-In . SVG Version: 6.00 Build 0)  -->
<!DOCTYPE svg PUBLIC "-//W3C//DTD SVG 1.1//EN" "http://www.w3.org/Graphics/SVG/1.1/DTD/svg11.dtd">
<svg version="1.1"
	 class="distance" xmlns:dc="http://purl.org/dc/elements/1.1/" xmlns:cc="http://creativecommons.org/ns#" xmlns:rdf="http://www.w3.org/1999/02/22-rdf-syntax-ns#" xmlns:svg="http://www.w3.org/2000/svg" xmlns:sodipodi="http://sodipodi.sourceforge.net/DTD/sodipodi-0.dtd" sodipodi:docname="distance.svg"
	 xmlns="http://www.w3.org/2000/svg" xmlns:xlink="http://www.w3.org/1999/xlink" x="0px" y="0px" width="86px" height="74px"
	 viewBox="2.099 7.467 86 74" enable-background="new 2.099 7.467 86 74" xml:space="preserve">
<g class="base" transform="matrix(1.1192917,-0.57953837,0.57953837,1.1192917,-30.666253,19.566914)">
	<path d="M56.432,57.567c-0.245,0.001-0.483-0.004-0.722-0.018
		c-6.517-0.338-10.608-5.465-14.216-9.983c-2.935-3.68-5.709-7.154-9.048-7.33c-3.177-0.158-7.421,2.396-12.625,7.619l-4.973-4.986
		c6.876-6.897,12.594-9.97,18.002-9.692c6.481,0.339,10.557,5.447,14.154,9.951c2.945,3.697,5.733,7.186,9.108,7.361
		c3.265,0.185,7.554-2.437,12.845-7.756l4.972,4.986C67.269,54.407,61.685,57.554,56.432,57.567z"/>
	<polygon points="5.421,47.395 3.989,48.832 7.882,52.739 3.969,56.665 5.394,58.095 9.307,54.172 13.195,58.076 
		14.63,56.638 10.733,52.734 14.649,48.806 13.221,47.376 9.315,51.303 	"/>
	<polygon points="75.393,32.287 73.959,33.724 77.853,37.629 73.939,41.554 75.365,42.984 79.28,39.058 
		83.171,42.965 84.606,41.528 80.713,37.622 84.624,33.697 83.198,32.267 79.289,36.194 	"/>
</g>
</svg>
