<?xml version="1.0" encoding="utf-8"?>
<!-- Generator: Adobe Illustrator 16.0.0, SVG Export Plug-In . SVG Version: 6.00 Build 0)  -->
<!DOCTYPE svg PUBLIC "-//W3C//DTD SVG 1.1//EN" "http://www.w3.org/Graphics/SVG/1.1/DTD/svg11.dtd">
<svg version="1.1"
	 class="map" xmlns:dc="http://purl.org/dc/elements/1.1/" xmlns:cc="http://creativecommons.org/ns#" xmlns:rdf="http://www.w3.org/1999/02/22-rdf-syntax-ns#" xmlns:svg="http://www.w3.org/2000/svg" xmlns:sodipodi="http://sodipodi.sourceforge.net/DTD/sodipodi-0.dtd" sodipodi:docname="ascent.svg"
	 xmlns="http://www.w3.org/2000/svg" xmlns:xlink="http://www.w3.org/1999/xlink" x="0px" y="0px" width="70px" height="60px"
	 viewBox="0 0 70 60" enable-background="new 0 0 70 60" xml:space="preserve">
<path  fill="#FFFFFF" class="base" d="M11.604,49.473c-1.967-2.897,2.434-5.463,4.576-7.483c1.177-1.104,8.297-7.729,5.201-9.078
	c-1.888-0.823-8.494-6.59-10.713-5.14c-0.615,0.408-2.457,0.789-3.433,0.814v5.494c0.866,1.4,3.498,2.273,3.481,4.068
	C10.688,41.018,7.014,48.905,11.604,49.473z M12.729,16.805c0.705-0.593-1.402-2.266-0.049-2.613
	c0.326-0.084,4.822,2.517,4.852,2.164c0.09-1.053-4.953-3.99-6.039-4.6c-3.552-1.979-2.71,1.184-4.424,2.649v5.455
	c0.169-0.253,1.367-0.521,1.643-0.817C9.857,17.804,11.528,17.814,12.729,16.805z M49.163,39.997
	c1.425-0.806,1.039-4.229,0.632-4.72C49.045,35.964,47.842,40.737,49.163,39.997z M35.383,29.336
	c2.988,1.176,2.787,16.541,7.638,12.465c2.554-2.145,3.256-4.856,3.432-7.8c0.096-1.526,4.764-5.354,4.307-6.325
	c-0.383-0.803-2.842,1.178-2.959-0.598c-0.07-1.062-3.303-3.342-2.711-4.167c0.9-1.257,2.188,2.308,2.174,2.271
	c0.824,1.918,1.529,1.58,3.311,1.14c4.124-1.025,0.598-2.31-0.469-3.677c-1.416-1.813,4.507,0.355,4.887,0.357
	c2.372,0.021,2.782,5.562,4.053,5.289c0.812-0.177,2.855-2.199,3.906-3.42V10.308c-0.875,0.02-2.91,0.045-3.785,0.041
	c-1.031-0.008-6.24,0.485-5.998-1.449c0.023-0.184-7.058,1.918-7.812,1.729c-0.907-0.234,1.626-1.421,1.615-1.312
	c0.054-0.458-0.188-0.746-0.594-0.923h-3.215c-2.945,0.546-6.631,2.03-7.302,2.965c0.705-0.979,2.224,2.46,2.246,2.469
	c0.293,0.125,2.651-3.916,3.584-2.418c1.221,1.947-4.104,2.979-5.157,2.574c-0.746-0.287-1.988,1.409-2.281,1.131
	c-0.863-0.835-0.575-3.605-0.989-3.848c-1.212-0.71-2.048,3.044-2.208,3.275c-0.205,0.295,3.76,1.568,2.225,2.32
	c-0.396,0.193-3.936-0.131-3.38,1.646c0.882,2.814,7.115-3.059,8.003-1.005c0.657,1.511,7.147-0.454,8.378-0.755
	c-1.27,5.114-6.635,3.988-10.297,2.967c-3.455-0.961-7.165,2.479-7.33,5.758C28.367,31.283,32.507,28.191,35.383,29.336z
	 M55.123,49.012c-1.553,0.58-1.771,2.957-1.468,3.867h9.129v-8.934C60.666,45.35,58.564,47.719,55.123,49.012z M9.464,24.982
	c-0.142-1.133-1.882-1.842-2.393-2.562v1.136C7.84,24.295,9.46,24.949,9.464,24.982z M70,0H0v60h70V0z M65.465,55.361H4.392V4.779
	h61.073V55.361z"/>
</svg>
