<?xml version="1.0" encoding="utf-8"?>
<!DOCTYPE svg PUBLIC "-//W3C//DTD SVG 1.1//EN" "http://www.w3.org/Graphics/SVG/1.1/DTD/svg11.dtd">
<svg version="1.1" id="Calque_1" xmlns="http://www.w3.org/2000/svg" xmlns:xlink="http://www.w3.org/1999/xlink" x="0px" y="0px"
	 width="24px" height="24px" viewBox="0 0 24 24" enable-background="new 0 0 24 24" xml:space="preserve">
<path fill="#1D1D1B" d="M19.188,0.115H4.813v10.063h14.375V0.115z M17.75,8.74H6.25V1.553h11.5V8.74z M20.625,10.178
	v1.438H3.375v-1.438c-1.588,0-2.875,1.287-2.875,2.875v8.625c0,0.795,0.643,1.438,1.438,1.438h20.125
	c0.794,0,1.438-0.643,1.438-1.438v-8.625C23.5,11.465,22.213,10.178,20.625,10.178z M19.188,20.24c0,0.795-0.643,1.438-1.438,1.438
	H6.25c-0.794,0-1.438-0.643-1.438-1.438v-1.438h14.375V20.24z M21.344,15.928h-1.438c-0.397,0-0.719-0.321-0.719-0.719
	s0.321-0.719,0.719-0.719h1.438c0.397,0,0.719,0.321,0.719,0.719S21.741,15.928,21.344,15.928z M16.313,2.99H7.688v1.438h8.625V2.99
	z M16.313,5.865H7.688v1.438h8.625V5.865z"/>
</svg>
