<?xml version="1.0" encoding="utf-8"?>
<!-- Generator: Adobe Illustrator 16.0.0, SVG Export Plug-In . SVG Version: 6.00 Build 0)  -->
<!DOCTYPE svg PUBLIC "-//W3C//DTD SVG 1.1//EN" "http://www.w3.org/Graphics/SVG/1.1/DTD/svg11.dtd">
<svg version="1.1"
	 class="results" xmlns:dc="http://purl.org/dc/elements/1.1/" xmlns:cc="http://creativecommons.org/ns#" xmlns:rdf="http://www.w3.org/1999/02/22-rdf-syntax-ns#" xmlns:svg="http://www.w3.org/2000/svg" xmlns:sodipodi="http://sodipodi.sourceforge.net/DTD/sodipodi-0.dtd" sodipodi:docname="ascent.svg"
	 xmlns="http://www.w3.org/2000/svg" xmlns:xlink="http://www.w3.org/1999/xlink" x="0px" y="0px" width="60px" height="60px"
	 viewBox="-64.986 -7.025 60 60" enable-background="new -64.986 -7.025 60 60" xml:space="preserve">
<path class="base" d="M-5.702,43.6l-11.31-11.314c-0.995-0.993-2.798-0.899-4.604,0.042l-4.936-4.933
	c6.429-8.399,5.823-20.458-1.863-28.146c-8.367-8.365-21.932-8.365-30.3,0c-8.363,8.369-8.363,21.934,0,30.301
	c7.688,7.687,19.746,8.292,28.147,1.86l4.935,4.934c-0.941,1.809-1.037,3.609-0.044,4.604l11.312,11.315
	c1.43,1.427,4.532,0.642,6.919-1.752C-5.056,48.125-4.271,45.027-5.702,43.6z M-55.526,26.366c-6.605-6.61-6.605-17.326,0-23.931
	c6.61-6.61,17.314-6.605,23.928,0c6.606,6.606,6.606,17.317,0,23.931C-38.211,32.972-48.921,32.972-55.526,26.366z"/>
</svg>
