<svg xmlns="http://www.w3.org/2000/svg" xmlns:xlink="http://www.w3.org/1999/xlink" version="1.1" x="0px" y="0px" viewBox="0 0 100 100" enable-background="new 0 0 100 100" xml:space="preserve">
    <path class="base" d="M82,0v18.2c0,2.3-2,4.1-4.3,4.1c-1.1,0-2.3-0.5-3-1.2c-0.3-0.3-0.7-0.6-0.7-0.9V8h-1v38c-1,1.1-1.7,2-3,2h-0.6  c-1.4,0-2.3-1.1-3.3-2.2V17h-1v35.3c-1,1-1.7,1.7-3,1.7h-0.7C60,54,59,53.3,58,52.3V17h-1v30.1c-1,1-1.6,1.9-2.9,1.9h-0.6  C52,49,51,47.7,50,46.4V17h-1v20.6c-1,1-1.8,1.4-3.1,1.4h-0.7C43,39,41,37.6,41,35.4V24.6c0-0.3,0-0.5,0-0.8V0h32.5h0H82z M22.5,100  L22.5,100H55V76.2c0-0.3,0-0.5,0-0.8V64.6c0-2.2-2-3.6-4.2-3.6h-0.7c-1.3,0-2.1,0.3-3.1,1.4V83h-1V53.6c-1-1.3-2-2.6-3.5-2.6h-0.6  c-1.3,0-1.9,1-2.9,1.9V83h-1V47.7c-1-1-2-1.7-3.3-1.7H34c-1.3,0-2,0.7-3,1.7V83h-1V54.2c-1-1.2-1.9-2.2-3.3-2.2H26c-1.3,0-2,0.9-3,2  v38h-1V79.8c0-0.3-0.4-0.6-0.7-0.9 c-0.7-0.7-1.9-1.2-3-1.2c-2.3,0-4.3,1.8-4.3,4.1V100H22.5z"/>
</svg>