<?xml version="1.0" encoding="utf-8"?>
<!DOCTYPE svg PUBLIC "-//W3C//DTD SVG 1.1//EN" "http://www.w3.org/Graphics/SVG/1.1/DTD/svg11.dtd">
<svg version="1.1" id="Calque_1" xmlns="http://www.w3.org/2000/svg" xmlns:xlink="http://www.w3.org/1999/xlink" x="0px" y="0px"
	 width="24px" height="24px" viewBox="0 0 24 24" enable-background="new 0 0 24 24" xml:space="preserve">
<path fill="#1D1D1B" d="M16.093,3.98H8.063c-0.84-0.186-1.706-0.271-2.506-0.271c-2.056,0-3.638,0.136-5.196,0.609
	v3.525C1.288,7.551,2.733,7.234,4.18,7.234c1.085,0,2.306,0.316,2.306,1.581c0,1.334-2.034,1.334-3.028,1.334
	c-0.429,0-0.836-0.023-1.266-0.046v3.457c0.655-0.09,1.288-0.158,1.943-0.158c1.018,0,2.576,0.204,2.576,1.537
	c0,1.197-1.153,1.424-2.531,1.424c-1.491,0-3.072-0.34-3.977-0.656v3.66c1.424,0.408,3.639,0.656,5.468,0.656
	c0.858,0,1.743-0.087,2.584-0.271h7.589c4.52,0,7.953-1.875,7.953-7.84C23.797,5.517,20.611,3.98,16.093,3.98z M14.782,15.82h-1.514
	V7.642h1.491c2.168,0,2.711,1.399,2.711,4.111C17.471,14.375,16.974,15.82,14.782,15.82z"/>
</svg>
