<?xml version="1.0" encoding="utf-8"?>
<!DOCTYPE svg PUBLIC "-//W3C//DTD SVG 1.1//EN" "http://www.w3.org/Graphics/SVG/1.1/DTD/svg11.dtd">
<svg version="1.1" id="Calque_1" xmlns="http://www.w3.org/2000/svg" xmlns:xlink="http://www.w3.org/1999/xlink" x="0px" y="0px"
	 width="8px" height="8px" viewBox="0 0 8 8" enable-background="new 0 0 8 8" xml:space="preserve">
	<g>
		<path fill="#A5A5A5" d="M0.5,8C0.372,8,0.244,7.951,0.146,7.854c-0.195-0.195-0.195-0.512,0-0.707l7-7
			c0.195-0.195,0.512-0.195,0.707,0s0.195,0.512,0,0.707l-7,7C0.756,7.951,0.628,8,0.5,8z"/>
		<path fill="#A5A5A5" d="M7.5,8C7.372,8,7.244,7.951,7.146,7.854l-7-7c-0.195-0.195-0.195-0.512,0-0.707s0.512-0.195,0.707,0l7,7
			c0.195,0.195,0.195,0.512,0,0.707C7.756,7.951,7.628,8,7.5,8z"/>
	</g>
</svg>
