<svg xmlns:ns0="&amp;#38;ns_sfw;" xmlns:dc="http://purl.org/dc/elements/1.1/" xmlns:cc="http://creativecommons.org/ns#" xmlns:rdf="http://www.w3.org/1999/02/22-rdf-syntax-ns#"
  xmlns:svg="http://www.w3.org/2000/svg" xmlns="http://www.w3.org/2000/svg" version="1.1"
  viewBox="0 0 124.839 124.839">
  <defs id="defs3588" />
  <g transform="translate(-28.180011,-28.299)" id="g3504">
    <rect width="123.171" height="123.17" x="29.013" y="29.132999" id="rect3550" style="fill:#ffffff" />
    <path d="M 28.18,153.138 V 28.299 h 124.842 v 124.004 0.834 H 28.18 z m 124.004,-0.834 v -0.834 0.834 z M 29.848,151.47 H 151.352 V 29.964 H 29.848 V 151.47 z"
      id="path3552" />
    <polygon points="148.762,148.845 148.762,32.903 32.403,32.903 32.403,148.949 " id="polygon3554" style="fill:#0076bd"
    />
    <path d="M 93.311,44.075 C 91.922,40.74 89.768,34.413 78.508,34.484 67.245,34.555 63.696,45.398 63.562,46.58 c -0.14,1.178 0.554,7.643 -1.668,9.729 -2.225,2.083 -9.317,6.259 -12.929,11.329 -3.615,5.078 -7.299,15.92 -8.76,18.77 -1.459,2.849 -5.352,5.492 -7.816,5.735 v 3.717 c 0,0 14.699,3.477 17.202,4.03 2.5,0.558 7.089,1.179 7.992,2.225 0.902,1.047 2.99,8.761 2.99,8.761 h 7.573 l 2.508,5.56 h 11.883 l 2.154,-3.96 -12.442,1.04 -1.112,-2.712 1.88,-0.066 1.599,-3.684 -4.313,0.416 c 0,0 -1.254,-4.938 4.24,-10.915 5.493,-5.978 13.414,-14.596 14.596,-27.037 0,0 1.463,0.209 2.298,-0.489 0,0 0.066,9.385 4.379,17.031 4.308,7.649 10.423,10.776 14.941,12.095 3.686,0.579 1.253,4.585 0.557,6.256 -0.693,1.667 -0.974,2.778 -2.5,2.643 -1.532,-0.145 -8.827,-0.837 -8.827,-0.837 l 2.084,3.406 h 8.55 c 0,0 1.666,-1.668 3.402,-5.56 1.739,-3.893 2.714,-3.96 4.73,-0.486 0.901,3.754 0.206,8.132 -0.28,9.172 -0.483,1.047 -2.085,0.631 -2.085,0.631 l -9.315,-0.904 2.434,3.96 h 9.804 c 0,0 0.553,0.695 1.805,-5.003 1.252,-5.702 2.78,-6.259 6.603,-6.606 3.821,-0.348 9.871,0.837 13.065,0.837 3.2,0 6.535,-0.766 7.997,-1.391 v -3.406 c 0,0 -4.588,0.97 -9.733,-13.831 -5.141,-14.806 -7.573,-17.452 -19.113,-29.129 0,0 -1.321,-0.763 -1.321,-2.917 0,-2.157 -0.488,-13.692 -10.912,-16.4 -10.429,-2.715 -14.391,5.485 -14.391,5.485"
      id="path3556" style="fill:#ffffff" />
    <path d="m 93.522,48.039 c -0.789,0 -3.524,-12.604 -13.441,-11.631 -9.916,0.975 -14.091,5.28 -14.781,12.834 0.137,4.495 -0.209,6.582 -1.465,7.901 -1.249,1.324 -10.284,7.231 -13.064,11.262 -2.778,4.031 -7.646,16.545 -7.646,16.545 0,0 -2.157,6.812 -8.689,8.615 0,0 -0.833,0.702 1.323,1.047 2.154,0.344 21.617,5.698 27.107,4.935 5.489,-0.763 5.56,-1.181 8.131,-5.492 2.571,-4.31 8.48,-4.797 10.568,-18.631 2.084,-13.83 2.223,-12.996 3.541,-14.036 1.324,-1.047 2.717,5.766 3.48,6.252 0.762,0.489 2.222,1.046 9.524,-3.612 1.041,-0.763 1.181,-1.182 1.456,-1.044 0.278,0.142 2.435,4.656 8.968,4.379 6.536,-0.277 7.788,-0.622 10.361,3.058 2.564,3.687 2.707,13.416 2.844,18.767 0.143,5.354 0.143,9.455 1.811,11.883 1.664,2.437 9.869,0.212 13.694,2.157 0,0 8.686,0.557 8.548,-0.831 -0.138,-1.391 -3.407,-0.834 -7.716,-11.818 -2.989,-10.703 -6.326,-17.656 -15.223,-26.831 0,0 -5.074,-5.003 -5.629,-6.185 -0.557,-1.182 -0.902,-3.683 -0.973,-5.351 -0.07,-1.671 -1.738,-11.609 -12.098,-12.234 -10.356,0.762 -9.383,8.061 -10.631,8.061"
      id="path3558" />
    <path d="m 92.316,50.678 c 0.142,-1.48 -0.834,-8.015 -5.652,-8.341 -2.319,0.372 -2.596,0.929 -5.379,0.837 -2.777,-0.093 -4.403,-1.487 -5.56,-1.392 0,0 -0.325,0.096 1.065,2.226 1.39,2.128 0.88,5.652 0.88,5.652 0,0 -0.182,3.987 2.732,6.163 0.931,1.295 3.063,-0.326 3.063,-0.326 0,0 1.572,0.514 3.895,-0.831 2.313,-1.348 1.433,-1.575 2.733,-2.412 1.295,-0.831 2.223,-1.576 2.223,-1.576"
      id="path3560" style="fill:#ffffff" />
    <path d="m 89.209,46.278 c 0.183,0.88 -0.232,3.197 -1.622,3.104 -1.39,-0.088 -0.227,-0.972 -1.435,-1.716 -1.203,-0.739 -2.272,-1.388 -5.145,-1.434 0,0 -1.53,-0.37 0.325,-0.696 1.856,-0.322 3.429,-0.51 4.957,0.37 1.534,0.88 0.972,1.067 2.039,0.511 1.065,-0.555 0.881,-0.139 0.881,-0.139"
      id="path3562" />
    <path d="m 95.79,57.722 c -1.437,-1.434 -1.388,-4.403 -1.434,-5.33 -0.047,-0.926 -1.483,-0.319 -1.898,0.515 -0.42,0.83 -4.129,4.772 -4.22,9.313 -0.093,4.539 1.343,4.585 1.575,4.585 0.235,0 1.576,0.188 6.35,-2.874 4.772,-3.055 4.683,-4.446 3.475,-4.584 -1.202,-0.139 -2.784,-0.558 -3.848,-1.625"
      id="path3564" style="fill:#ffffff" />
    <path d="m 93.197,54.479 c 0.165,1.194 0.275,5.652 4.54,5.701 0,0 1.248,0.234 -0.557,1.207 -1.808,0.972 -4.63,1.806 -5.003,-0.788 -0.369,-2.598 0,-5.932 1.02,-6.12"
      id="path3566" />
    <path d="m 93.522,63.519 c -1.165,-0.219 -2.874,0.369 -2.734,-5.333 0,0 -1.579,1.533 -1.298,4.034 0.278,2.499 1.158,3.615 4.032,1.299"
      id="path3568" />
    <path d="m 103.853,48.918 c -2.366,0 -8.523,1.714 -8.245,5.748 0.274,4.03 5.002,3.846 5.002,3.846 0,0 0.975,0.046 1.297,1.064 0.696,0.185 4.174,1.622 8.34,-2.778 2.503,-4.126 2.876,-8.296 2.322,-8.434 -0.559,-0.141 -1.859,0.834 -4.034,0.877 -2.178,0.052 -4.682,-0.323 -4.682,-0.323"
      id="path3570" style="fill:#ffffff" />
    <path d="m 101.353,51.051 c -0.326,0.695 -0.788,2.548 0.37,3.381 1.155,0.834 2.824,-0.833 2.824,-0.833 0,0 1.903,-1.253 3.062,-1.481 0,0 -0.142,-0.882 -3.291,0.416 -3.151,1.298 -2.965,-1.483 -2.965,-1.483"
      id="path3572" />
    <path d="m 62.45,108.337 c 0,0 -1.182,-3.683 -1.076,-4.621 0,0 1.836,-0.521 3.474,0.834 1.634,1.354 2.431,2.99 2.363,3.335 l -4.761,0.452 z"
      id="path3574" style="fill:#0076bd" />
    <polygon points="68.707,134.3 59.807,134.3 59.807,121.786 49.382,121.786 49.382,141.879 68.707,141.879 " id="polygon3576"
      style="fill:#ffffff" />
    <path d="m 84.068,137.497 v 4.311 H 73.85 v -20.16 h 18.278 c 0,0 7.859,-0.138 7.859,7.927 0,8.065 -7.373,7.855 -7.373,7.855 l -8.546,0.067 z"
      id="path3578" style="fill:#ffffff" />
    <path d="m 88.377,131.799 h -4.31 v -3.896 h 4.099 c 0,0 1.881,0.07 1.881,1.81 0,1.735 -1.67,2.086 -1.67,2.086" id="path3580"
      style="fill:#0076bd" />
    <path d="m 118.265,120.192 c -10.771,0 -14.112,4.93 -14.112,11.397 0,6.464 2.366,11.68 13.973,11.68 11.61,0 13.414,-5.422 13.414,-11.403 0,-5.978 -3.057,-11.674 -13.275,-11.674"
      id="path3582" style="fill:#ffffff" />
    <path d="m 114.79,131.728 c 0,3.616 2.157,4.243 3.129,4.243 0.976,0 3.268,-0.418 3.268,-4.036 0,-3.612 -2.504,-4.17 -3.268,-4.17 -0.764,0 -3.129,0.557 -3.129,3.963"
      id="path3584" style="fill:#0076bd" />
  </g>
  <wappalyzerData id="wappalyzerData" style="display: none" />
  <script id="wappalyzerEnvDetection" src="chrome-extension://gppongmhjkpfnbhagpmjfkannfbllamg/js/inject.js" />
</svg>