<?xml version="1.0" encoding="utf-8"?>
<svg version="1.1" id="Calque_1" xmlns="http://www.w3.org/2000/svg" xmlns:xlink="http://www.w3.org/1999/xlink" x="0px" y="0px"
	 width="11.051px" height="10.463px" viewBox="0 0 11.051 10.463" enable-background="new 0 0 11.051 10.463" xml:space="preserve">
	<g>
		<path fill="#A5A5A5" d="M10.733,0.908C10.517,0.862,10.303,1,10.257,1.216l-0.292,1.36C9.037,0.994,7.334,0,5.467,0
			C2.592,0,0.252,2.339,0.252,5.215c0,0.221,0.18,0.4,0.401,0.4c0.221,0,0.401-0.18,0.401-0.4c0-2.433,1.979-4.413,4.412-4.413
			c1.586,0,3.033,0.847,3.816,2.196L7.946,2.712C7.729,2.666,7.516,2.803,7.47,3.02C7.423,3.237,7.561,3.45,7.778,3.497
			l2.295,0.492c0.039,0.008,0.079,0.011,0.118,0.007c0.065-0.005,0.128-0.027,0.184-0.063c0.089-0.058,0.152-0.148,0.174-0.252
			l0.492-2.295C11.088,1.168,10.95,0.955,10.733,0.908z"/>
		<path fill="#A5A5A5" d="M10.33,4.688c-0.222,0.007-0.395,0.193-0.388,0.414C9.98,6.281,9.559,7.403,8.753,8.264
			c-0.806,0.86-1.898,1.355-3.076,1.395C5.628,9.66,5.58,9.66,5.531,9.66c-1.537,0-2.953-0.798-3.752-2.092l1.394,0.375
			C3.387,8,3.606,7.873,3.664,7.659C3.721,7.445,3.595,7.226,3.38,7.168L1.113,6.561C1.01,6.533,0.901,6.547,0.809,6.6
			C0.716,6.653,0.649,6.74,0.622,6.844L0.014,9.111c-0.057,0.214,0.07,0.434,0.284,0.491c0.035,0.009,0.07,0.014,0.104,0.014
			c0.177,0,0.339-0.118,0.387-0.298L1.13,8.045c0.951,1.496,2.605,2.418,4.4,2.418c0.058,0,0.116-0.001,0.173-0.003
			c1.392-0.046,2.683-0.632,3.635-1.648s1.451-2.343,1.405-3.735C10.736,4.855,10.551,4.681,10.33,4.688z"/>
	</g>
</svg>
