<svg xmlns="http://www.w3.org/2000/svg" xmlns:xlink="http://www.w3.org/1999/xlink" version="1.1" x="0px" y="0px" viewBox="0 0 100 125"
  enable-background="new 0 0 100 100" xml:space="preserve">
  <path d="M47.773,75.018c6.029,0.548,3.105-4.75,3.105-4.75c-0.365-4.386,4.386-3.654,4.386-3.654C72.256,84.154,91.808,90,91.808,90  L75.729,70.268c3.837,2.924,8.222,3.653,8.222,3.653c-1.856-1.172-3.764-2.908-5.563-4.819c2.367-0.189,4.34-0.772,5.617-1.252  c-0.316-0.139-0.692-0.354-1.149-0.688c-0.933-0.682-3.309-2.278-5.745-3.896c-3.029-2.025-11.877-12.183-11.877-12.183h-0.001  C51.464,31.659,38.456,26.965,38.456,26.965c0-5.213-0.986-8.629-2.092-10.823l0.001,0c-0.111-0.229-0.233-0.424-0.35-0.636  c-0.04-0.068-0.079-0.148-0.118-0.214c-3.66-6.357-9.993-4.851-9.993-4.851c-4.101,0.768-6.45,4.647-6.45,4.647L8.895,20.368  l10.315-1.813c0,0,0.387,0.299,0.12,0.605L8.987,21.417c2.717,1.594,8.091,1.163,8.091,1.163c5.116,2.01,2.923,8.587,2.923,8.587  C9.404,53.823,39.003,61.862,39.003,61.862c5.664,4.385,6.76,11.329,6.76,11.329l-4.438,4.716c-4.634-0.84-9.295-1.426-13.377-1.83  c1.192-1.298,3.085-4.2,2.431-9.135c0,0-4.952,4.041-3.638,9.02c-0.501-0.046-0.991-0.092-1.472-0.132  c-0.15-1.352-1.181-6.672-8.169-10.021c0,0,0.823,7.662,6.635,9.894c-5.164-0.408-8.667-0.502-8.667-0.502l0.731,3.837  c2.272-0.131,5.667,0.148,9.509,0.645l-8.815,5.555l1.169,1.854l11.012-6.938c1.755,0.264,3.561,0.559,5.363,0.869l0.033,0.026  l0.363,0.042c10.092,1.754,19.918,3.978,19.918,3.978l3.288-2.558c-3.697-1.663-8.249-2.949-12.984-3.948L47.773,75.018z   M25.666,19.839c-0.808,0-1.462-0.655-1.462-1.462s0.654-1.462,1.462-1.462c0.807,0,1.461,0.655,1.461,1.462  S26.473,19.839,25.666,19.839z"
  />
</svg>