<?xml version="1.0" encoding="utf-8"?>
<!DOCTYPE svg PUBLIC "-//W3C//DTD SVG 1.1//EN" "http://www.w3.org/Graphics/SVG/1.1/DTD/svg11.dtd">
<svg version="1.1" id="Calque_1" xmlns="http://www.w3.org/2000/svg" xmlns:xlink="http://www.w3.org/1999/xlink" x="0px" y="0px"
	 width="24px" height="24px" viewBox="0 0 24 24" enable-background="new 0 0 24 24" xml:space="preserve">
<path fill="#1D1D1B" d="M18.812,15.508c-1.258,0-2.368,0.6-3.093,1.518l-6.725-3.439
	c0.088-0.328,0.151-0.667,0.151-1.024c0-0.389-0.075-0.755-0.18-1.11l6.695-3.424c0.721,0.959,1.859,1.587,3.152,1.587
	c2.19,0,3.961-1.771,3.961-3.96c0-2.186-1.771-3.958-3.961-3.958c-2.185,0-3.958,1.772-3.958,3.958c0,0.358,0.063,0.698,0.152,1.028
	l-6.724,3.438c-0.726-0.919-1.837-1.52-3.098-1.52c-2.188,0-3.958,1.773-3.958,3.96s1.771,3.959,3.958,3.959
	c1.295,0,2.432-0.629,3.156-1.589l6.692,3.423c-0.105,0.355-0.181,0.724-0.181,1.114c0,2.187,1.773,3.959,3.958,3.959
	c2.19,0,3.961-1.772,3.961-3.959C22.773,17.279,21.001,15.508,18.812,15.508z"/>
</svg>
