<svg xmlns="http://www.w3.org/2000/svg" width="1665" height="1665">
    <path d="M681.499 1244.586c0 49.738-41.211 90.949-90.949 90.949-49.737 0-90.948-41.211-90.948-90.949 0-49.737 41.211-90.948 90.948-90.948 49.738 0 90.949 41.211 90.949 90.948zm636.64 0c0 49.738-41.212 90.949-90.95 90.949-49.737 0-90.948-41.211-90.948-90.949 0-49.737 41.211-90.948 90.949-90.948 49.737 0 90.948 41.211 90.948 90.948zm90.948-773.062v363.794c0 22.737-17.764 42.632-40.5 45.475l-741.8 86.685c3.553 16.342 9.238 32.684 9.238 49.737 0 16.342-9.948 31.264-17.053 45.474h653.692c24.869 0 45.474 20.606 45.474 45.475 0 24.868-20.605 45.474-45.474 45.474H545.076c-24.869 0-45.474-20.606-45.474-45.474 0-22.027 31.974-75.317 43.343-97.344L417.18 426.05H272.23c-24.868 0-45.473-20.605-45.473-45.474 0-24.869 20.605-45.474 45.474-45.474h181.897c47.606 0 49.027 56.842 56.132 90.948h853.352c24.87 0 45.475 20.606 45.475 45.474z" fill="#fff"/>
</svg>
