<?xml version="1.0" encoding="utf-8"?>
<!-- Generator: Adobe Illustrator 16.0.0, SVG Export Plug-In . SVG Version: 6.00 Build 0)  -->
<!DOCTYPE svg PUBLIC "-//W3C//DTD SVG 1.1//EN" "http://www.w3.org/Graphics/SVG/1.1/DTD/svg11.dtd">
<svg version="1.1" class="departure" xmlns="http://www.w3.org/2000/svg" xmlns:xlink="http://www.w3.org/1999/xlink" x="0px" y="0px"
	 width="485.211px" height="485.211px" viewBox="0 0 485.211 485.211" enable-background="new 0 0 485.211 485.211"
	 xml:space="preserve">
<g class="stick">
	<path class="base" d="M280.932,181.955V60.651V30.327C280.932,13.562,265.725,0,246.93,0
		c-17.614,0-32.074,11.915-33.824,27.207v458.005h67.826V333.584V212.282V181.955z"/>
	<path class="shadow" d="M246.93,0c-0.77,0-1.529,0.031-2.287,0.076c15.811,1.047,28.289,14.172,28.289,30.251v30.324v121.304v30.327
		v121.302v151.627h8V333.584V212.282v-30.327V60.651V30.327C280.932,13.562,265.725,0,246.93,0z"/>
</g>
<polygon class="flag" points="212.281,182.106 272.931,182.106 272.931,181.955 394.234,181.955 454.887,121.304 
	394.234,60.651 272.931,60.651 212.281,60.651 121.303,60.651 121.303,181.955 212.281,181.955 "/>
</svg>
