<?xml version="1.0" encoding="utf-8"?>
<!-- Generator: Adobe Illustrator 16.0.0, SVG Export Plug-In . SVG Version: 6.00 Build 0)  -->
<!DOCTYPE svg PUBLIC "-//W3C//DTD SVG 1.1//EN" "http://www.w3.org/Graphics/SVG/1.1/DTD/svg11.dtd">
<svg version="1.1" class="flag" xmlns="http://www.w3.org/2000/svg" xmlns:xlink="http://www.w3.org/1999/xlink" x="0px" y="0px"
	 width="52.111px" height="52.111px" viewBox="0 0 52.111 52.111" enable-background="new 0 0 52.111 52.111" xml:space="preserve">
<path class="base" d="M48.283,6.665c-0.339-0.336-0.735-0.505-1.196-0.505c-0.229,0-0.712,0.188-1.444,0.559
	c-0.734,0.372-1.517,0.786-2.337,1.248c-0.823,0.459-1.797,0.875-2.922,1.247c-1.123,0.371-2.162,0.56-3.119,0.56
	c-0.885,0-1.663-0.168-2.336-0.505C32.7,8.224,30.76,7.445,29.115,6.931c-1.646-0.514-3.416-0.771-5.312-0.771
	c-3.271,0-6.999,1.064-11.177,3.188c-0.862,0.43-1.48,0.763-1.88,1.007L10.35,7.444c0.897-0.779,1.477-1.914,1.477-3.195
	C11.826,1.902,9.924,0,7.577,0c-2.348,0-4.25,1.902-4.25,4.249c0,1.531,0.817,2.862,2.031,3.61l5.74,42.09
	c0.171,1.253,1.243,2.162,2.475,2.162c0.111,0,0.226-0.009,0.341-0.021c1.368-0.188,2.326-1.446,2.139-2.814l-2.307-16.916
	c4.186-2.077,7.807-3.124,10.853-3.124c1.293,0,2.554,0.19,3.783,0.583c1.229,0.391,2.254,0.812,3.067,1.271
	c0.812,0.461,1.772,0.888,2.88,1.274c1.106,0.39,2.199,0.585,3.278,0.585c2.727,0,5.989-1.027,9.796-3.08
	c0.479-0.248,0.827-0.492,1.05-0.729c0.222-0.239,0.332-0.58,0.332-1.021V7.86C48.785,7.401,48.618,7.002,48.283,6.665z"/>
</svg>
