<?xml version="1.0" encoding="utf-8"?>
<!-- Generator: Adobe Illustrator 16.0.0, SVG Export Plug-In . SVG Version: 6.00 Build 0)  -->
<!DOCTYPE svg PUBLIC "-//W3C//DTD SVG 1.1//EN" "http://www.w3.org/Graphics/SVG/1.1/DTD/svg11.dtd">
<svg version="1.1" class="flag" xmlns="http://www.w3.org/2000/svg" xmlns:xlink="http://www.w3.org/1999/xlink" x="0px" y="0px"
	 width="46px" height="52px" viewBox="-0.25 0.055 46 52" enable-background="new -0.25 0.055 46 52" xml:space="preserve">
<path class="base" d="M45.244,6.72c-0.343-0.336-0.742-0.505-1.206-0.505c-0.232,0-0.719,0.188-1.455,0.559
	c-0.74,0.372-1.531,0.786-2.356,1.248c-0.829,0.459-1.812,0.875-2.947,1.247c-1.131,0.371-2.179,0.562-3.144,0.562
	c-0.894,0-1.676-0.168-2.355-0.505c-2.247-1.045-4.204-1.824-5.861-2.338c-1.659-0.516-3.444-0.771-5.355-0.771
	c-3.298,0-7.057,1.064-11.271,3.188c-0.868,0.43-1.491,0.763-1.896,1.007L6.998,7.5C7.901,6.72,8.487,5.586,8.487,4.304
	c0-2.347-1.919-4.249-4.285-4.249c-2.368,0-4.285,1.902-4.285,4.249c0,1.531,0.824,2.862,2.047,3.61l5.788,42.09
	c0.172,1.253,1.251,2.162,2.495,2.162c0.112,0,0.228-0.009,0.344-0.021c1.379-0.188,2.345-1.444,2.158-2.812l-2.327-16.917
	c4.222-2.077,7.873-3.124,10.943-3.124c1.303,0,2.575,0.188,3.813,0.583c1.239,0.391,2.273,0.812,3.093,1.271
	c0.819,0.461,1.786,0.89,2.903,1.274c1.115,0.39,2.217,0.585,3.305,0.585c2.749,0,6.038-1.027,9.877-3.08
	c0.482-0.248,0.834-0.492,1.059-0.729c0.224-0.239,0.335-0.58,0.335-1.021V7.916C45.75,7.457,45.582,7.057,45.244,6.72z"/>
</svg>
