<?xml version="1.0" encoding="UTF-8" standalone="no"?>
<svg
   xmlns:dc="http://purl.org/dc/elements/1.1/"
   xmlns:cc="http://creativecommons.org/ns#"
   xmlns:rdf="http://www.w3.org/1999/02/22-rdf-syntax-ns#"
   xmlns:svg="http://www.w3.org/2000/svg"
   xmlns="http://www.w3.org/2000/svg"
   xmlns:sodipodi="http://sodipodi.sourceforge.net/DTD/sodipodi-0.dtd"
   xmlns:inkscape="http://www.inkscape.org/namespaces/inkscape"
   version="1.1"
   id="Calque_1"
   x="0px"
   y="0px"
   width="100px"
   height="100px"
   viewBox="0 0 100 100"
   enable-background="new 0 0 100 100"
   xml:space="preserve"
   inkscape:version="0.48.4 r9939"
   sodipodi:docname="camera-examine.svg"><metadata
     id="metadata29"><rdf:RDF><cc:Work
         rdf:about=""><dc:format>image/svg+xml</dc:format><dc:type
           rdf:resource="http://purl.org/dc/dcmitype/StillImage" /></cc:Work></rdf:RDF></metadata><defs
     id="defs27" /><sodipodi:namedview
     pagecolor="#ffffff"
     bordercolor="#666666"
     borderopacity="1"
     objecttolerance="10"
     gridtolerance="10"
     guidetolerance="10"
     inkscape:pageopacity="0"
     inkscape:pageshadow="2"
     inkscape:window-width="1918"
     inkscape:window-height="1059"
     id="namedview25"
     showgrid="false"
     inkscape:zoom="2.36"
     inkscape:cx="51.271186"
     inkscape:cy="48.728814"
     inkscape:window-x="0"
     inkscape:window-y="19"
     inkscape:window-maximized="0"
     inkscape:current-layer="Calque_1" /><g
     id="g3"
     style="fill:#ffffff"><path
       d="M51.623,13.966c-0.553-0.958-1.574-1.547-2.68-1.547s-2.127,0.59-2.68,1.547L22.277,55.512   c-0.553,0.957-0.553,2.137,0,3.095c0.553,0.957,1.575,1.547,2.68,1.547H72.93c1.105,0,2.127-0.59,2.68-1.547   c0.554-0.958,0.554-2.138,0-3.095L51.623,13.966z M45.436,37.637c-0.492,0.699-0.784,1.548-0.784,2.465   c0,2.367,1.925,4.292,4.292,4.292c2.367,0,4.292-1.926,4.292-4.292c0-0.919-0.292-1.769-0.786-2.467   c4.775,1.09,7.173,4.225,7.996,5.554c-1.482,2.009-4.993,5.493-11.502,5.493c-6.542,0-10.029-3.468-11.505-5.485   C38.257,41.878,40.663,38.732,45.436,37.637z M48.943,21.702l7.315,12.67c-2.009-0.831-4.428-1.384-7.315-1.384   s-5.307,0.553-7.315,1.384L48.943,21.702z M30.317,53.965l4.933-8.543c2.014,2.574,6.239,6.354,13.694,6.354   c7.454,0,11.68-3.78,13.694-6.354l4.932,8.543H30.317z"
       id="path5"
       style="fill:#ffffff" /><path
       d="M29.343,26.003c0.288,0.237,0.636,0.353,0.983,0.353c0.446,0,0.889-0.192,1.195-0.563c0.543-0.66,0.449-1.635-0.21-2.178   l-9.602-7.911c-0.659-0.542-1.634-0.449-2.179,0.21c-0.543,0.66-0.449,1.635,0.21,2.178L29.343,26.003z"
       id="path7"
       style="fill:#ffffff" /><path
       d="M23.995,37.325c0.678,0,1.299-0.449,1.49-1.133c0.229-0.823-0.252-1.676-1.076-1.905l-12.602-3.505   c-0.826-0.229-1.676,0.253-1.905,1.076s0.253,1.676,1.076,1.905l12.602,3.505C23.718,37.306,23.857,37.325,23.995,37.325z"
       id="path9"
       style="fill:#ffffff" /><path
       d="M27.159,31.841c0.554,0,1.091-0.299,1.369-0.823c0.4-0.755,0.112-1.691-0.643-2.092L7.21,17.977   c-0.755-0.4-1.691-0.112-2.091,0.643c-0.4,0.755-0.113,1.691,0.643,2.092l20.674,10.949C26.667,31.783,26.915,31.841,27.159,31.841   z"
       id="path11"
       style="fill:#ffffff" /><path
       d="M43.53,66.325c-0.839-0.17-1.654,0.371-1.824,1.209l-2.474,12.192c-0.17,0.837,0.371,1.654,1.209,1.823   c0.104,0.021,0.207,0.031,0.309,0.031c0.721,0,1.366-0.506,1.515-1.239l2.474-12.192C44.909,67.313,44.368,66.495,43.53,66.325z"
       id="path13"
       style="fill:#ffffff" /><path
       d="M57.392,67.947c-0.185-0.835-1.013-1.363-1.846-1.177c-0.834,0.185-1.361,1.011-1.177,1.845l2.824,12.772   c0.159,0.722,0.8,1.214,1.51,1.214c0.11,0,0.223-0.013,0.335-0.037c0.834-0.185,1.361-1.01,1.177-1.845L57.392,67.947z"
       id="path15"
       style="fill:#ffffff" /><path
       d="M49.552,66.514c-0.001,0-0.002,0-0.003,0c-0.854,0.002-1.546,0.695-1.544,1.551l0.043,23.394   c0.002,0.854,0.694,1.545,1.547,1.545c0,0,0.001,0,0.003,0c0.855-0.002,1.546-0.696,1.544-1.551l-0.044-23.395   C51.097,67.204,50.405,66.514,49.552,66.514z"
       id="path17"
       style="fill:#ffffff" /><path
       d="M68.337,26.356c0.346,0,0.695-0.116,0.983-0.353l9.602-7.911c0.66-0.543,0.754-1.519,0.211-2.178   c-0.543-0.659-1.519-0.753-2.179-0.21l-9.602,7.911c-0.66,0.543-0.754,1.519-0.211,2.178   C67.447,26.164,67.891,26.356,68.337,26.356z"
       id="path19"
       style="fill:#ffffff" /><path
       d="M86.857,30.781l-12.603,3.505c-0.823,0.229-1.306,1.082-1.076,1.905c0.19,0.685,0.813,1.133,1.49,1.133   c0.137,0,0.276-0.019,0.415-0.057l12.603-3.505c0.823-0.229,1.305-1.082,1.075-1.905C88.533,31.034,87.678,30.552,86.857,30.781z"
       id="path21"
       style="fill:#ffffff" /><path
       d="M93.544,18.62c-0.399-0.754-1.335-1.043-2.092-0.643L70.779,28.926c-0.756,0.4-1.043,1.337-0.644,2.092   c0.277,0.524,0.813,0.823,1.369,0.823c0.244,0,0.491-0.058,0.723-0.18L92.9,20.711C93.656,20.311,93.943,19.375,93.544,18.62z"
       id="path23"
       style="fill:#ffffff" /></g></svg>